<svg width="160" height="160" viewBox="0 0 160 160" fill="none" xmlns="http://www.w3.org/2000/svg">
<g clip-path="url(#clip0_704_15002)">
<g opacity="0.48">
<path opacity="0.48" fill-rule="evenodd" clip-rule="evenodd" d="M45.2451 28.2536L43.304 30.1945L45.2505 32.1417L44.4187 32.9737L42.4726 31.0262L40.5317 32.9683L39.6976 32.134L41.6383 30.1917L39.6922 28.246L40.524 27.414L42.4698 29.3601L44.411 27.4193L45.2451 28.2536Z" fill="#919EAB"/>
<path opacity="0.48" fill-rule="evenodd" clip-rule="evenodd" d="M142.976 116.317L141.034 118.258L142.981 120.205L142.149 121.037L140.203 119.09L138.262 121.032L137.428 120.198L139.369 118.256L137.423 116.31L138.254 115.478L140.2 117.424L142.141 115.483L142.976 116.317Z" fill="#919EAB"/>
<path opacity="0.72" d="M20.2184 81.9711C20.5826 82.3363 20.7871 82.831 20.7871 83.3468C20.7871 83.8626 20.5826 84.3574 20.2184 84.7226L18.8333 86.1079C18.6528 86.2894 18.4371 86.4344 18.2009 86.5327C17.9642 86.6312 17.7103 86.682 17.4538 86.682C17.1973 86.682 16.9434 86.6312 16.7067 86.5327C16.4704 86.4344 16.2558 86.2904 16.0752 86.1089L14.6892 84.7226C14.325 84.3574 14.1204 83.8626 14.1204 83.3468C14.1204 82.831 14.325 82.3363 14.6892 81.9711L16.0742 80.5857C16.2548 80.4043 16.4704 80.2593 16.7067 80.161C16.9435 80.0624 17.1974 80.0117 17.4538 80.0117C17.7102 80.0117 17.9641 80.0624 18.2009 80.161C18.4371 80.2593 18.6517 80.4032 18.8323 80.5847L20.2184 81.9711Z" fill="#919EAB"/>
<path fill-rule="evenodd" clip-rule="evenodd" d="M107.945 128.93C107.945 128.93 107.945 128.931 107.945 128.93L106.559 127.545L107.145 126.96L106.558 127.543C106.531 127.516 106.499 127.494 106.463 127.48C106.428 127.465 106.39 127.457 106.352 127.457C106.314 127.457 106.276 127.465 106.241 127.48C106.206 127.494 106.174 127.516 106.147 127.543L106.145 127.545L104.76 128.93C104.76 128.93 104.76 128.931 104.76 128.93C104.705 128.985 104.674 129.06 104.674 129.137C104.674 129.215 104.705 129.289 104.759 129.344C104.759 129.344 104.759 129.344 104.759 129.344L106.147 130.732C106.174 130.759 106.206 130.78 106.241 130.795C106.276 130.81 106.314 130.817 106.352 130.817C106.39 130.817 106.428 130.81 106.463 130.795C106.499 130.78 106.531 130.759 106.558 130.732L106.559 130.73L107.945 129.344C107.945 129.344 107.945 129.344 107.945 129.344C107.999 129.289 108.03 129.215 108.03 129.137C108.03 129.06 107.999 128.985 107.945 128.93ZM107.731 126.375L109.117 127.762C109.481 128.127 109.686 128.621 109.686 129.137C109.686 129.653 109.481 130.148 109.117 130.513L109.116 130.514L107.732 131.898C107.731 131.899 107.731 131.899 107.731 131.899C107.55 132.081 107.336 132.225 107.099 132.323C106.863 132.422 106.609 132.472 106.352 132.472C106.096 132.472 105.842 132.422 105.605 132.323C105.369 132.225 105.154 132.081 104.974 131.899C104.973 131.899 104.973 131.899 104.973 131.898L103.588 130.513C103.223 130.148 103.019 129.653 103.019 129.137C103.019 128.621 103.223 128.127 103.588 127.762L104.973 126.376C104.973 126.376 104.973 126.375 104.974 126.375C105.154 126.194 105.369 126.05 105.605 125.951C105.842 125.853 106.096 125.802 106.352 125.802C106.609 125.802 106.863 125.853 107.099 125.951C107.336 126.05 107.55 126.194 107.731 126.375Z" fill="#919EAB"/>
<path opacity="0.48" fill-rule="evenodd" clip-rule="evenodd" d="M71.5759 139.403C71.6272 139.602 71.6284 139.811 71.5787 140.011C71.5244 140.23 71.4112 140.43 71.2522 140.589C71.0929 140.748 70.8931 140.861 70.6745 140.916C70.4742 140.965 70.2651 140.964 70.0662 140.913L65.9444 140.145C65.6206 140.083 65.1546 139.879 64.996 139.363C64.8373 138.846 65.1087 138.416 65.3415 138.183L68.8454 134.679C69.0808 134.441 69.5123 134.171 70.0293 134.331C70.546 134.491 70.7491 134.958 70.8095 135.286C70.8096 135.286 70.8097 135.287 70.8097 135.287L71.5759 139.403ZM69.9272 139.264L69.3919 136.389L67.0525 138.729L69.9272 139.264Z" fill="#919EAB"/>
<path opacity="0.8" fill-rule="evenodd" clip-rule="evenodd" d="M34.3103 136.613C34.3616 136.812 34.3628 137.021 34.3131 137.222C34.2587 137.441 34.1456 137.64 33.9866 137.799C33.8273 137.959 33.6275 138.072 33.4089 138.126C33.2086 138.176 32.9995 138.174 32.8006 138.123L28.6787 137.355C28.355 137.293 27.889 137.089 27.7303 136.573C27.5717 136.056 27.8431 135.627 28.0759 135.394L31.5798 131.889C31.8151 131.652 32.2467 131.381 32.7637 131.541C33.2803 131.701 33.4835 132.169 33.5439 132.496C33.544 132.497 33.544 132.497 33.5441 132.497L34.3103 136.613ZM32.6616 136.474L32.1263 133.599L29.7869 135.939L32.6616 136.474Z" fill="#637381"/>
<path opacity="0.8" fill-rule="evenodd" clip-rule="evenodd" d="M63.3685 16.6673C63.3685 16.4249 63.2966 16.1878 63.1619 15.9861C63.0272 15.7844 62.8359 15.6274 62.6121 15.5347C62.3883 15.4419 62.1418 15.4177 61.9042 15.465C61.6665 15.5122 61.4482 15.6289 61.2768 15.8004C61.1056 15.9717 60.9889 16.1901 60.9415 16.4281C60.8942 16.6662 60.9184 16.9127 61.0111 17.1365C61.1038 17.3604 61.261 17.5519 61.4626 17.6866C61.6641 17.8213 61.9009 17.8932 62.1432 17.8932C62.4681 17.8932 62.7798 17.7641 63.0096 17.5342C63.2394 17.3044 63.3685 16.9926 63.3685 16.6673ZM64.9148 14.8152C65.281 15.3633 65.4766 16.0079 65.4766 16.6673C65.4766 17.5514 65.1255 18.3993 64.5004 19.0246C63.8753 19.6499 63.0273 20.0012 62.1432 20.0012C61.4839 20.0012 60.8394 19.8056 60.2912 19.4393C59.7432 19.073 59.3158 18.5523 59.0635 17.943C58.8111 17.3336 58.7454 16.6633 58.874 16.0169C59.0025 15.3704 59.3198 14.7763 59.7861 14.3099C60.2522 13.8437 60.8462 13.5261 61.4928 13.3974C62.1394 13.2688 62.8099 13.3348 63.419 13.5872C64.0282 13.8396 64.5486 14.267 64.9148 14.8152Z" fill="#637381"/>
<path opacity="0.8" fill-rule="evenodd" clip-rule="evenodd" d="M135.464 72.7233C135.464 72.4809 135.392 72.2438 135.258 72.0422C135.123 71.8404 134.932 71.6834 134.708 71.5907C134.484 71.498 134.238 71.4737 134 71.521C133.762 71.5683 133.544 71.685 133.373 71.8564C133.201 72.0277 133.085 72.2461 133.037 72.4841C132.99 72.7222 133.014 72.9688 133.107 73.1925C133.2 73.4164 133.357 73.6079 133.558 73.7427C133.76 73.8774 133.997 73.9492 134.239 73.9492C134.564 73.9492 134.876 73.8201 135.105 73.5903C135.335 73.3604 135.464 73.0486 135.464 72.7233ZM137.011 70.8712C137.377 71.4194 137.572 72.0639 137.572 72.7233C137.572 73.6074 137.221 74.4554 136.596 75.0807C135.971 75.706 135.123 76.0573 134.239 76.0573C133.58 76.0573 132.935 75.8617 132.387 75.4953C131.839 75.129 131.411 74.6084 131.159 73.9991C130.907 73.3897 130.841 72.7194 130.97 72.073C131.098 71.4265 131.415 70.8324 131.882 70.366C132.348 69.8997 132.942 69.5821 133.589 69.4535C134.235 69.3248 134.906 69.3908 135.515 69.6432C136.124 69.8956 136.644 70.3231 137.011 70.8712Z" fill="#637381"/>
</g>
<g opacity="0.5">
<g filter="url(#filter0_di_704_15002)">
<rect x="98.2754" y="35.3578" width="33.2057" height="38.74" rx="5.8874" transform="rotate(42.7275 98.2754 35.3578)" fill="#919EAB"/>
</g>
<g filter="url(#filter1_di_704_15002)">
<path d="M61.4637 114.364L46.8281 100.845L43.8209 115.286C43.395 117.331 45.3021 119.092 47.307 118.506L61.4637 114.364Z" fill="#919EAB"/>
</g>
<g filter="url(#filter2_di_704_15002)">
<path d="M83.2549 51.6196C85.3288 49.3743 88.8301 49.2353 91.0754 51.3092L107.337 66.3296C109.582 68.4034 109.721 71.9048 107.647 74.1501L75.9319 108.487C74.5707 109.96 72.8347 111.036 70.9093 111.6L61.4635 114.364L46.8281 100.845L48.8341 91.2098C49.2431 89.2458 50.1782 87.4299 51.5394 85.9563L83.2549 51.6196Z" fill="#DFE3E8"/>
</g>
<g filter="url(#filter3_di_704_15002)">
<rect width="22.1372" height="5.53429" rx="2.76714" transform="matrix(-0.734589 -0.678512 -0.678513 0.734589 103.582 70.395)" fill="#919EAB"/>
</g>
</g>
</g>
<defs>
<filter id="filter0_di_704_15002" x="66.4238" y="29.791" width="77.8105" height="78.1221" filterUnits="userSpaceOnUse" color-interpolation-filters="sRGB">
<feFlood flood-opacity="0" result="BackgroundImageFix"/>
<feColorMatrix in="SourceAlpha" type="matrix" values="0 0 0 0 0 0 0 0 0 0 0 0 0 0 0 0 0 0 127 0" result="hardAlpha"/>
<feOffset dx="8" dy="8"/>
<feGaussianBlur stdDeviation="8"/>
<feColorMatrix type="matrix" values="0 0 0 0 0.270588 0 0 0 0 0.309804 0 0 0 0 0.356863 0 0 0 0.16 0"/>
<feBlend mode="normal" in2="BackgroundImageFix" result="effect1_dropShadow_704_15002"/>
<feBlend mode="normal" in="SourceGraphic" in2="effect1_dropShadow_704_15002" result="shape"/>
<feColorMatrix in="SourceAlpha" type="matrix" values="0 0 0 0 0 0 0 0 0 0 0 0 0 0 0 0 0 0 127 0" result="hardAlpha"/>
<feOffset dx="-2" dy="-2"/>
<feGaussianBlur stdDeviation="2"/>
<feComposite in2="hardAlpha" operator="arithmetic" k2="-1" k3="1"/>
<feColorMatrix type="matrix" values="0 0 0 0 0.270588 0 0 0 0 0.309804 0 0 0 0 0.356863 0 0 0 0.48 0"/>
<feBlend mode="normal" in2="shape" result="effect2_innerShadow_704_15002"/>
</filter>
<filter id="filter1_di_704_15002" x="35.7617" y="92.8455" width="49.7012" height="49.7747" filterUnits="userSpaceOnUse" color-interpolation-filters="sRGB">
<feFlood flood-opacity="0" result="BackgroundImageFix"/>
<feColorMatrix in="SourceAlpha" type="matrix" values="0 0 0 0 0 0 0 0 0 0 0 0 0 0 0 0 0 0 127 0" result="hardAlpha"/>
<feOffset dx="8" dy="8"/>
<feGaussianBlur stdDeviation="8"/>
<feColorMatrix type="matrix" values="0 0 0 0 0.270588 0 0 0 0 0.309804 0 0 0 0 0.356863 0 0 0 0.16 0"/>
<feBlend mode="normal" in2="BackgroundImageFix" result="effect1_dropShadow_704_15002"/>
<feBlend mode="normal" in="SourceGraphic" in2="effect1_dropShadow_704_15002" result="shape"/>
<feColorMatrix in="SourceAlpha" type="matrix" values="0 0 0 0 0 0 0 0 0 0 0 0 0 0 0 0 0 0 127 0" result="hardAlpha"/>
<feOffset dx="-2" dy="-2"/>
<feGaussianBlur stdDeviation="2"/>
<feComposite in2="hardAlpha" operator="arithmetic" k2="-1" k3="1"/>
<feColorMatrix type="matrix" values="0 0 0 0 0.270588 0 0 0 0 0.309804 0 0 0 0 0.356863 0 0 0 0.48 0"/>
<feBlend mode="normal" in2="shape" result="effect2_innerShadow_704_15002"/>
</filter>
<filter id="filter2_di_704_15002" x="38.8281" y="41.8403" width="94.2891" height="96.5232" filterUnits="userSpaceOnUse" color-interpolation-filters="sRGB">
<feFlood flood-opacity="0" result="BackgroundImageFix"/>
<feColorMatrix in="SourceAlpha" type="matrix" values="0 0 0 0 0 0 0 0 0 0 0 0 0 0 0 0 0 0 127 0" result="hardAlpha"/>
<feOffset dx="8" dy="8"/>
<feGaussianBlur stdDeviation="8"/>
<feColorMatrix type="matrix" values="0 0 0 0 0.270588 0 0 0 0 0.309804 0 0 0 0 0.356863 0 0 0 0.16 0"/>
<feBlend mode="normal" in2="BackgroundImageFix" result="effect1_dropShadow_704_15002"/>
<feBlend mode="normal" in="SourceGraphic" in2="effect1_dropShadow_704_15002" result="shape"/>
<feColorMatrix in="SourceAlpha" type="matrix" values="0 0 0 0 0 0 0 0 0 0 0 0 0 0 0 0 0 0 127 0" result="hardAlpha"/>
<feOffset dx="-2" dy="-2"/>
<feGaussianBlur stdDeviation="2"/>
<feComposite in2="hardAlpha" operator="arithmetic" k2="-1" k3="1"/>
<feColorMatrix type="matrix" values="0 0 0 0 0.270588 0 0 0 0 0.309804 0 0 0 0 0.356863 0 0 0 0.48 0"/>
<feBlend mode="normal" in2="shape" result="effect2_innerShadow_704_15002"/>
</filter>
<filter id="filter3_di_704_15002" x="76.709" y="48.5178" width="49.7305" height="48.7996" filterUnits="userSpaceOnUse" color-interpolation-filters="sRGB">
<feFlood flood-opacity="0" result="BackgroundImageFix"/>
<feColorMatrix in="SourceAlpha" type="matrix" values="0 0 0 0 0 0 0 0 0 0 0 0 0 0 0 0 0 0 127 0" result="hardAlpha"/>
<feOffset dx="8" dy="8"/>
<feGaussianBlur stdDeviation="8"/>
<feColorMatrix type="matrix" values="0 0 0 0 0.270588 0 0 0 0 0.309804 0 0 0 0 0.356863 0 0 0 0.16 0"/>
<feBlend mode="normal" in2="BackgroundImageFix" result="effect1_dropShadow_704_15002"/>
<feBlend mode="normal" in="SourceGraphic" in2="effect1_dropShadow_704_15002" result="shape"/>
<feColorMatrix in="SourceAlpha" type="matrix" values="0 0 0 0 0 0 0 0 0 0 0 0 0 0 0 0 0 0 127 0" result="hardAlpha"/>
<feOffset dx="-2" dy="-2"/>
<feGaussianBlur stdDeviation="2"/>
<feComposite in2="hardAlpha" operator="arithmetic" k2="-1" k3="1"/>
<feColorMatrix type="matrix" values="0 0 0 0 0.270588 0 0 0 0 0.309804 0 0 0 0 0.356863 0 0 0 0.48 0"/>
<feBlend mode="normal" in2="shape" result="effect2_innerShadow_704_15002"/>
</filter>
<clipPath id="clip0_704_15002">
<rect width="160" height="160" fill="white"/>
</clipPath>
</defs>
</svg>
