<svg width="160" height="160" viewBox="0 0 160 160" fill="none" xmlns="http://www.w3.org/2000/svg">
<g clip-path="url(#clip0_923_45347)">
<g opacity="0.48">
<path opacity="0.48" fill-rule="evenodd" clip-rule="evenodd" d="M45.2451 28.2536L43.304 30.1945L45.2505 32.1416L44.4187 32.9736L42.4726 31.0262L40.5317 32.9683L39.6976 32.134L41.6383 30.1917L39.6922 28.246L40.524 27.414L42.4698 29.36L44.411 27.4193L45.2451 28.2536Z" fill="#919EAB"/>
<path opacity="0.48" fill-rule="evenodd" clip-rule="evenodd" d="M142.976 116.317L141.034 118.258L142.981 120.205L142.149 121.037L140.203 119.09L138.262 121.032L137.428 120.198L139.369 118.255L137.423 116.31L138.254 115.478L140.2 117.424L142.141 115.483L142.976 116.317Z" fill="#919EAB"/>
<path opacity="0.72" d="M20.2184 81.9711C20.5826 82.3363 20.7871 82.831 20.7871 83.3468C20.7871 83.8626 20.5826 84.3573 20.2184 84.7225L18.8333 86.1079C18.6528 86.2893 18.4371 86.4344 18.2009 86.5327C17.9642 86.6312 17.7103 86.6819 17.4538 86.6819C17.1973 86.6819 16.9434 86.6312 16.7067 86.5327C16.4704 86.4344 16.2558 86.2904 16.0752 86.1089L14.6892 84.7225C14.325 84.3573 14.1204 83.8626 14.1204 83.3468C14.1204 82.831 14.325 82.3363 14.6892 81.9711L16.0742 80.5857C16.2548 80.4042 16.4704 80.2592 16.7067 80.1609C16.9435 80.0624 17.1974 80.0117 17.4538 80.0117C17.7102 80.0117 17.9641 80.0624 18.2009 80.1609C18.4371 80.2592 18.6517 80.4032 18.8323 80.5847L20.2184 81.9711Z" fill="#919EAB"/>
<path fill-rule="evenodd" clip-rule="evenodd" d="M107.945 128.93C107.945 128.93 107.945 128.93 107.945 128.93L106.559 127.545L107.145 126.959L106.558 127.543C106.531 127.516 106.499 127.494 106.463 127.48C106.428 127.465 106.39 127.457 106.352 127.457C106.314 127.457 106.276 127.465 106.241 127.48C106.206 127.494 106.174 127.516 106.147 127.543L106.145 127.545L104.76 128.93C104.76 128.93 104.76 128.93 104.76 128.93C104.705 128.985 104.674 129.06 104.674 129.137C104.674 129.215 104.705 129.289 104.759 129.344C104.759 129.344 104.759 129.344 104.759 129.344L106.147 130.732C106.174 130.759 106.206 130.78 106.241 130.795C106.276 130.81 106.314 130.817 106.352 130.817C106.39 130.817 106.428 130.81 106.463 130.795C106.499 130.78 106.531 130.759 106.558 130.732L106.559 130.73L107.945 129.344C107.945 129.344 107.945 129.344 107.945 129.344C107.999 129.289 108.03 129.215 108.03 129.137C108.03 129.06 107.999 128.985 107.945 128.93ZM107.731 126.375L109.117 127.761C109.481 128.127 109.686 128.621 109.686 129.137C109.686 129.653 109.481 130.148 109.117 130.513L109.116 130.514L107.732 131.898C107.731 131.899 107.731 131.899 107.731 131.899C107.55 132.081 107.336 132.225 107.099 132.323C106.863 132.422 106.609 132.472 106.352 132.472C106.096 132.472 105.842 132.422 105.605 132.323C105.369 132.225 105.154 132.081 104.974 131.899C104.973 131.899 104.973 131.899 104.973 131.898L103.588 130.513C103.223 130.148 103.019 129.653 103.019 129.137C103.019 128.621 103.223 128.127 103.588 127.761L104.973 126.376C104.973 126.376 104.973 126.375 104.974 126.375C105.154 126.194 105.369 126.05 105.605 125.951C105.842 125.853 106.096 125.802 106.352 125.802C106.609 125.802 106.863 125.853 107.099 125.951C107.336 126.05 107.55 126.194 107.731 126.375Z" fill="#919EAB"/>
<path opacity="0.48" fill-rule="evenodd" clip-rule="evenodd" d="M71.5759 139.403C71.6272 139.602 71.6284 139.811 71.5787 140.011C71.5244 140.23 71.4112 140.43 71.2522 140.589C71.0929 140.748 70.8931 140.861 70.6745 140.916C70.4742 140.965 70.2651 140.964 70.0662 140.913L65.9444 140.145C65.6206 140.083 65.1546 139.879 64.996 139.363C64.8373 138.846 65.1087 138.416 65.3415 138.183L68.8454 134.679C69.0808 134.441 69.5123 134.17 70.0293 134.331C70.546 134.491 70.7491 134.958 70.8095 135.286C70.8096 135.286 70.8097 135.287 70.8097 135.287L71.5759 139.403ZM69.9272 139.264L69.3919 136.389L67.0525 138.729L69.9272 139.264Z" fill="#919EAB"/>
<path opacity="0.8" fill-rule="evenodd" clip-rule="evenodd" d="M34.3103 136.613C34.3616 136.812 34.3628 137.021 34.3131 137.221C34.2587 137.441 34.1456 137.64 33.9866 137.799C33.8273 137.959 33.6275 138.071 33.4089 138.126C33.2086 138.176 32.9995 138.174 32.8006 138.123L28.6787 137.355C28.355 137.293 27.889 137.089 27.7303 136.573C27.5717 136.056 27.8431 135.627 28.0759 135.394L31.5798 131.889C31.8151 131.651 32.2467 131.381 32.7637 131.541C33.2803 131.701 33.4835 132.168 33.5439 132.496C33.544 132.496 33.544 132.497 33.5441 132.497L34.3103 136.613ZM32.6616 136.474L32.1263 133.599L29.7869 135.939L32.6616 136.474Z" fill="#637381"/>
<path opacity="0.8" fill-rule="evenodd" clip-rule="evenodd" d="M63.3685 16.6672C63.3685 16.4248 63.2966 16.1877 63.1619 15.9861C63.0272 15.7844 62.8359 15.6273 62.6121 15.5346C62.3883 15.4419 62.1418 15.4176 61.9042 15.4649C61.6665 15.5122 61.4482 15.6289 61.2768 15.8003C61.1056 15.9716 60.9889 16.19 60.9415 16.428C60.8942 16.6661 60.9184 16.9126 61.0111 17.1364C61.1038 17.3603 61.261 17.5518 61.4626 17.6866C61.6641 17.8213 61.9009 17.8931 62.1432 17.8931C62.4681 17.8931 62.7798 17.764 63.0096 17.5342C63.2394 17.3043 63.3685 16.9925 63.3685 16.6672ZM64.9148 14.8151C65.281 15.3633 65.4766 16.0078 65.4766 16.6672C65.4766 17.5513 65.1255 18.3993 64.5004 19.0246C63.8753 19.6499 63.0273 20.0011 62.1432 20.0011C61.4839 20.0011 60.8394 19.8056 60.2912 19.4392C59.7432 19.0729 59.3158 18.5523 59.0635 17.943C58.8111 17.3336 58.7454 16.6633 58.874 16.0169C59.0025 15.3704 59.3198 14.7763 59.7861 14.3099C60.2522 13.8436 60.8462 13.526 61.4928 13.3974C62.1394 13.2687 62.8099 13.3347 63.419 13.5871C64.0282 13.8395 64.5486 14.267 64.9148 14.8151Z" fill="#637381"/>
<path opacity="0.8" fill-rule="evenodd" clip-rule="evenodd" d="M135.464 72.7232C135.464 72.4808 135.392 72.2437 135.258 72.0421C135.123 71.8404 134.932 71.6833 134.708 71.5906C134.484 71.4979 134.238 71.4736 134 71.5209C133.762 71.5682 133.544 71.6849 133.373 71.8563C133.201 72.0276 133.085 72.246 133.037 72.484C132.99 72.7221 133.014 72.9687 133.107 73.1925C133.2 73.4164 133.357 73.6078 133.558 73.7426C133.76 73.8773 133.997 73.9491 134.239 73.9491C134.564 73.9491 134.876 73.82 135.105 73.5902C135.335 73.3603 135.464 73.0485 135.464 72.7232ZM137.011 70.8711C137.377 71.4193 137.572 72.0638 137.572 72.7232C137.572 73.6073 137.221 74.4553 136.596 75.0806C135.971 75.7059 135.123 76.0572 134.239 76.0572C133.58 76.0572 132.935 75.8616 132.387 75.4952C131.839 75.1289 131.411 74.6083 131.159 73.999C130.907 73.3896 130.841 72.7193 130.97 72.0729C131.098 71.4264 131.415 70.8323 131.882 70.3659C132.348 69.8996 132.942 69.582 133.589 69.4534C134.235 69.3247 134.906 69.3907 135.515 69.6431C136.124 69.8955 136.644 70.323 137.011 70.8711Z" fill="#637381"/>
</g>
<g opacity="0.5">
<g filter="url(#filter0_di_923_45347)">
<path d="M49.2731 64.1438C49.2731 72.5864 56.1817 79.352 64.8026 79.352C73.4203 79.352 80.332 72.5864 80.332 64.1438C80.332 55.7013 73.4203 48.9357 64.8026 48.9357C56.1817 48.9357 49.2731 55.7013 49.2731 64.1438Z" fill="#919EAB"/>
<path d="M88.2723 96.5714C88.2723 88.7561 77.4611 86.8008 64.8032 86.8008C52.0765 86.8008 41.334 88.8235 41.334 96.6448C41.334 104.46 52.1452 106.415 64.8032 106.415C77.5298 106.415 88.2723 104.393 88.2723 96.5714Z" fill="#919EAB"/>
</g>
<g filter="url(#filter1_di_923_45347)">
<path d="M118.668 105.642C118.668 95.3924 104.49 92.8281 87.8898 92.8281C71.1995 92.8281 57.1113 95.4807 57.1113 105.738C57.1113 115.987 71.2897 118.551 87.8898 118.551C104.58 118.551 118.668 115.899 118.668 105.642Z" fill="#DFE3E8"/>
</g>
<g filter="url(#filter2_di_923_45347)">
<path d="M67.5234 63.1134C67.5234 74.1853 76.5836 83.058 87.8894 83.058C99.1911 83.058 108.255 74.1853 108.255 63.1134C108.255 52.0415 99.1911 43.1688 87.8894 43.1688C76.5836 43.1688 67.5234 52.0415 67.5234 63.1134Z" fill="#DFE3E8"/>
</g>
</g>
</g>
<defs>
<filter id="filter0_di_923_45347" x="33.334" y="40.9357" width="78.9375" height="89.4797" filterUnits="userSpaceOnUse" color-interpolation-filters="sRGB">
<feFlood flood-opacity="0" result="BackgroundImageFix"/>
<feColorMatrix in="SourceAlpha" type="matrix" values="0 0 0 0 0 0 0 0 0 0 0 0 0 0 0 0 0 0 127 0" result="hardAlpha"/>
<feOffset dx="8" dy="8"/>
<feGaussianBlur stdDeviation="8"/>
<feColorMatrix type="matrix" values="0 0 0 0 0.270588 0 0 0 0 0.309804 0 0 0 0 0.356863 0 0 0 0.16 0"/>
<feBlend mode="normal" in2="BackgroundImageFix" result="effect1_dropShadow_923_45347"/>
<feBlend mode="normal" in="SourceGraphic" in2="effect1_dropShadow_923_45347" result="shape"/>
<feColorMatrix in="SourceAlpha" type="matrix" values="0 0 0 0 0 0 0 0 0 0 0 0 0 0 0 0 0 0 127 0" result="hardAlpha"/>
<feOffset dx="-2" dy="-2"/>
<feGaussianBlur stdDeviation="2"/>
<feComposite in2="hardAlpha" operator="arithmetic" k2="-1" k3="1"/>
<feColorMatrix type="matrix" values="0 0 0 0 0.270588 0 0 0 0 0.309804 0 0 0 0 0.356863 0 0 0 0.48 0"/>
<feBlend mode="normal" in2="shape" result="effect2_innerShadow_923_45347"/>
</filter>
<filter id="filter1_di_923_45347" x="49.1113" y="84.8281" width="93.5566" height="57.7234" filterUnits="userSpaceOnUse" color-interpolation-filters="sRGB">
<feFlood flood-opacity="0" result="BackgroundImageFix"/>
<feColorMatrix in="SourceAlpha" type="matrix" values="0 0 0 0 0 0 0 0 0 0 0 0 0 0 0 0 0 0 127 0" result="hardAlpha"/>
<feOffset dx="8" dy="8"/>
<feGaussianBlur stdDeviation="8"/>
<feColorMatrix type="matrix" values="0 0 0 0 0.270588 0 0 0 0 0.309804 0 0 0 0 0.356863 0 0 0 0.16 0"/>
<feBlend mode="normal" in2="BackgroundImageFix" result="effect1_dropShadow_923_45347"/>
<feBlend mode="normal" in="SourceGraphic" in2="effect1_dropShadow_923_45347" result="shape"/>
<feColorMatrix in="SourceAlpha" type="matrix" values="0 0 0 0 0 0 0 0 0 0 0 0 0 0 0 0 0 0 127 0" result="hardAlpha"/>
<feOffset dx="-2" dy="-2"/>
<feGaussianBlur stdDeviation="2"/>
<feComposite in2="hardAlpha" operator="arithmetic" k2="-1" k3="1"/>
<feColorMatrix type="matrix" values="0 0 0 0 0.270588 0 0 0 0 0.309804 0 0 0 0 0.356863 0 0 0 0.48 0"/>
<feBlend mode="normal" in2="shape" result="effect2_innerShadow_923_45347"/>
</filter>
<filter id="filter2_di_923_45347" x="59.5234" y="35.1688" width="72.7324" height="71.8893" filterUnits="userSpaceOnUse" color-interpolation-filters="sRGB">
<feFlood flood-opacity="0" result="BackgroundImageFix"/>
<feColorMatrix in="SourceAlpha" type="matrix" values="0 0 0 0 0 0 0 0 0 0 0 0 0 0 0 0 0 0 127 0" result="hardAlpha"/>
<feOffset dx="8" dy="8"/>
<feGaussianBlur stdDeviation="8"/>
<feColorMatrix type="matrix" values="0 0 0 0 0.270588 0 0 0 0 0.309804 0 0 0 0 0.356863 0 0 0 0.16 0"/>
<feBlend mode="normal" in2="BackgroundImageFix" result="effect1_dropShadow_923_45347"/>
<feBlend mode="normal" in="SourceGraphic" in2="effect1_dropShadow_923_45347" result="shape"/>
<feColorMatrix in="SourceAlpha" type="matrix" values="0 0 0 0 0 0 0 0 0 0 0 0 0 0 0 0 0 0 127 0" result="hardAlpha"/>
<feOffset dx="-2" dy="-2"/>
<feGaussianBlur stdDeviation="2"/>
<feComposite in2="hardAlpha" operator="arithmetic" k2="-1" k3="1"/>
<feColorMatrix type="matrix" values="0 0 0 0 0.270588 0 0 0 0 0.309804 0 0 0 0 0.356863 0 0 0 0.48 0"/>
<feBlend mode="normal" in2="shape" result="effect2_innerShadow_923_45347"/>
</filter>
<clipPath id="clip0_923_45347">
<rect width="160" height="160" fill="white"/>
</clipPath>
</defs>
</svg>
