<svg width="24" height="24" viewBox="0 0 24 24" fill="none" xmlns="http://www.w3.org/2000/svg">
<g id="groups">
<mask id="mask0_181_1371" style="mask-type:alpha" maskUnits="userSpaceOnUse" x="0" y="0" width="24" height="24">
<rect id="Bounding box" width="24" height="24" fill="#D9D9D9"/>
</mask>
<g mask="url(#mask0_181_1371)">
<path id="secondary-shape" opacity="0.5" d="M1.3655 17.7885C1.12033 17.7885 0.91475 17.7056 0.74875 17.5397C0.582917 17.3737 0.5 17.1682 0.5 16.923V16.5692C0.5 15.9039 0.847417 15.3574 1.54225 14.9297C2.23725 14.5022 3.14308 14.2885 4.25975 14.2885C4.44425 14.2885 4.63008 14.2942 4.81725 14.3057C5.00442 14.3172 5.19292 14.3397 5.38275 14.373C5.18792 14.6847 5.04333 15.0081 4.949 15.3432C4.85483 15.6786 4.80775 16.0225 4.80775 16.375V17.7885H1.3655ZM19.1923 17.7885V16.3762C19.1923 15.9997 19.1478 15.6455 19.0588 15.3135C18.9696 14.9815 18.8359 14.668 18.6578 14.373C18.8539 14.3397 19.0414 14.3172 19.2203 14.3057C19.3991 14.2942 19.5757 14.2885 19.75 14.2885C20.8667 14.2885 21.7708 14.4997 22.4625 14.9222C23.1542 15.3446 23.5 15.8936 23.5 16.5692V16.923C23.5 17.1682 23.4171 17.3737 23.2512 17.5397C23.0852 17.7056 22.8797 17.7885 22.6345 17.7885H19.1923ZM4.257 13.3172C3.78567 13.3172 3.383 13.1497 3.049 12.8145C2.715 12.4793 2.548 12.0764 2.548 11.6057C2.548 11.1289 2.71567 10.7261 3.051 10.3972C3.38617 10.0684 3.78908 9.90399 4.25975 9.90399C4.73658 9.90399 5.141 10.0684 5.473 10.3972C5.80517 10.7261 5.97125 11.1299 5.97125 11.6087C5.97125 12.0734 5.80692 12.4743 5.47825 12.8115C5.14975 13.1487 4.74267 13.3172 4.257 13.3172ZM19.75 13.3172C19.2833 13.3172 18.8814 13.1487 18.5443 12.8115C18.2071 12.4743 18.0385 12.0734 18.0385 11.6087C18.0385 11.1299 18.2071 10.7261 18.5443 10.3972C18.8814 10.0684 19.2839 9.90399 19.7518 9.90399C20.2339 9.90399 20.6394 10.0684 20.9683 10.3972C21.2971 10.7261 21.4615 11.1289 21.4615 11.6057C21.4615 12.0764 21.2975 12.4793 20.9695 12.8145C20.6415 13.1497 20.235 13.3172 19.75 13.3172Z" fill="#637381"/>
<path id="primary-shape" d="M7.40775 17.7884C7.14742 17.7884 6.93108 17.7017 6.75875 17.5284C6.58625 17.3552 6.5 17.1405 6.5 16.8844V16.4134C6.5 15.9452 6.63142 15.5173 6.89425 15.1296C7.15708 14.7418 7.53592 14.4037 8.03075 14.1154C8.52558 13.8269 9.11025 13.6105 9.78475 13.4664C10.4591 13.322 11.1962 13.2499 11.9963 13.2499C12.8116 13.2499 13.5564 13.322 14.2308 13.4664C14.9051 13.6105 15.4897 13.8269 15.9845 14.1154C16.4795 14.4037 16.8558 14.7418 17.1135 15.1296C17.3712 15.5173 17.5 15.9452 17.5 16.4134V16.8844C17.5 17.1405 17.4133 17.3552 17.24 17.5284C17.0668 17.7017 16.8522 17.7884 16.596 17.7884H7.40775ZM12.0035 12.4999C11.2832 12.4999 10.6698 12.2475 10.1635 11.7426C9.65717 11.238 9.404 10.625 9.404 9.90387C9.404 9.1682 9.65633 8.55162 10.161 8.05412C10.6658 7.55645 11.2788 7.30762 12 7.30762C12.7355 7.30762 13.3521 7.55612 13.8497 8.05312C14.3472 8.54995 14.596 9.1657 14.596 9.90037C14.596 10.6205 14.3476 11.2339 13.8508 11.7404C13.3538 12.2467 12.738 12.4999 12.0035 12.4999Z" fill="#637381"/>
</g>
</g>
</svg>
