<svg width="24" height="24" viewBox="0 0 24 24" fill="none" xmlns="http://www.w3.org/2000/svg">
<g id="key">
<mask id="mask0_181_1349" style="mask-type:alpha" maskUnits="userSpaceOnUse" x="0" y="0" width="24" height="24">
<rect id="Bounding box" width="24" height="24" fill="#D9D9D9"/>
</mask>
<g mask="url(#mask0_181_1349)">
<path id="secondary-shape" opacity="0.5" d="M7.00113 14.423C6.32813 14.423 5.75604 14.1874 5.28488 13.7163C4.81371 13.2451 4.57812 12.673 4.57812 12C4.57812 11.327 4.81371 10.7549 5.28488 10.2838C5.75604 9.81261 6.32813 9.57703 7.00113 9.57703C7.67413 9.57703 8.24621 9.81261 8.71738 10.2838C9.18854 10.7549 9.42413 11.327 9.42413 12C9.42413 12.673 9.18854 13.2451 8.71738 13.7163C8.24621 14.1874 7.67413 14.423 7.00113 14.423Z" fill="#637381"/>
<path id="primary-shape" d="M6.99806 14.423C6.32506 14.423 5.75298 14.1874 5.28181 13.7163C4.81065 13.2451 4.57506 12.673 4.57506 12C4.57506 11.327 4.81065 10.7549 5.28181 10.2838C5.75298 9.8126 6.32506 9.57702 6.99806 9.57702C7.67106 9.57702 8.24315 9.8126 8.71431 10.2838C9.18548 10.7549 9.42106 11.327 9.42106 12C9.42106 12.673 9.18548 13.2451 8.71431 13.7163C8.24315 14.1874 7.67106 14.423 6.99806 14.423ZM6.99806 17.3653C8.19806 17.3653 9.26506 17.0243 10.1991 16.3423C11.1331 15.6603 11.7635 14.7962 12.0903 13.75H13.6903L14.8751 14.8095C14.9622 14.8838 15.0546 14.9387 15.1521 14.974C15.2494 15.0093 15.3551 15.027 15.4693 15.027C15.5833 15.027 15.6891 15.0093 15.7866 14.974C15.8841 14.9387 15.9764 14.8807 16.0636 14.8L17.3923 13.625L18.8731 14.7788C18.9667 14.8493 19.0696 14.9038 19.1818 14.9423C19.294 14.9808 19.4071 14.9917 19.5211 14.975C19.6352 14.9583 19.7416 14.9257 19.8403 14.877C19.9391 14.8282 20.027 14.7602 20.1038 14.673L21.9501 12.6173C22.0334 12.5238 22.0942 12.4251 22.1326 12.3213C22.1711 12.2174 22.1903 12.1052 22.1903 11.9845C22.1903 11.864 22.1686 11.7544 22.1251 11.6558C22.0814 11.5571 22.0179 11.4661 21.9346 11.3828L21.0731 10.5213C20.9794 10.4276 20.8765 10.359 20.7643 10.3155C20.6521 10.2718 20.5358 10.25 20.4153 10.25H12.0903C11.7736 9.24485 11.1561 8.39101 10.2376 7.68851C9.3189 6.98601 8.23906 6.63477 6.99806 6.63477C5.49806 6.63477 4.22881 7.15393 3.19031 8.19227C2.15198 9.23077 1.63281 10.5 1.63281 12C1.63281 13.5 2.15198 14.7693 3.19031 15.8078C4.22881 16.8461 5.49806 17.3653 6.99806 17.3653Z" fill="#637381"/>
</g>
</g>
</svg>
