<svg width="24" height="24" viewBox="0 0 24 24" fill="none" xmlns="http://www.w3.org/2000/svg">
<g id="label">
<mask id="mask0_181_1415" style="mask-type:alpha" maskUnits="userSpaceOnUse" x="0" y="0" width="24" height="24">
<rect id="Bounding box" width="24" height="24" fill="#D9D9D9"/>
</mask>
<g mask="url(#mask0_181_1415)">
<path id="primary-shape" d="M19.752 13.0443L16.5345 17.6115C16.3383 17.891 16.0881 18.1089 15.7837 18.2653C15.4792 18.4218 15.1539 18.5 14.8077 18.5H5.30775C4.80908 18.5 4.38308 18.3234 4.02975 17.9703C3.67658 17.6169 3.5 17.1909 3.5 16.6923V7.30775C3.5 6.80908 3.67658 6.38308 4.02975 6.02975C4.38308 5.67658 4.80908 5.5 5.30775 5.5H14.8077C15.1602 5.5 15.4872 5.58142 15.7885 5.74425C16.0897 5.90708 16.3383 6.12825 16.5345 6.40775L19.752 10.9557C19.9763 11.2737 20.0885 11.6218 20.0885 12C20.0885 12.3782 19.9763 12.7263 19.752 13.0443Z" fill="#637381"/>
</g>
</g>
</svg>
