<svg width="24" height="24" viewBox="0 0 24 24" fill="none" xmlns="http://www.w3.org/2000/svg">
<g id="shield_person">
<mask id="mask0_181_1393" style="mask-type:alpha" maskUnits="userSpaceOnUse" x="0" y="0" width="24" height="24">
<rect id="Bounding box" width="24" height="24" fill="#D9D9D9"/>
</mask>
<g mask="url(#mask0_181_1393)">
<path id="secondary-shape" opacity="0.5" d="M11.9987 12.75C12.9012 12.75 13.6686 12.434 14.3007 11.802C14.9327 11.1698 15.2487 10.4025 15.2487 9.5C15.2487 8.5975 14.9327 7.83017 14.3007 7.198C13.6686 6.566 12.9012 6.25 11.9987 6.25C11.0962 6.25 10.3289 6.566 9.69672 7.198C9.06472 7.83017 8.74872 8.5975 8.74872 9.5C8.74872 10.4025 9.06472 11.1698 9.69672 11.802C10.3289 12.434 11.0962 12.75 11.9987 12.75ZM11.9987 19.9C12.9372 19.5962 13.7776 19.1308 14.52 18.5038C15.2621 17.8769 15.907 17.1578 16.4545 16.3463C15.7635 15.9924 15.0433 15.7213 14.294 15.5328C13.5446 15.3443 12.7796 15.25 11.9987 15.25C11.2179 15.25 10.4528 15.3443 9.70347 15.5328C8.95414 15.7213 8.23397 15.9924 7.54297 16.3463C8.09047 17.1578 8.7353 17.8769 9.47747 18.5038C10.2198 19.1308 11.0602 19.5962 11.9987 19.9Z" fill="#637381"/>
<path id="primary-shape" d="M12 12.7497C12.9025 12.7497 13.6698 12.4337 14.302 11.8017C14.934 11.1695 15.25 10.4022 15.25 9.4997C15.25 8.5972 14.934 7.82986 14.302 7.19769C13.6698 6.56569 12.9025 6.2497 12 6.2497C11.0975 6.2497 10.3302 6.56569 9.698 7.19769C9.066 7.82986 8.75 8.5972 8.75 9.4997C8.75 10.4022 9.066 11.1695 9.698 11.8017C10.3302 12.4337 11.0975 12.7497 12 12.7497ZM12 19.8997C12.9385 19.5959 13.7789 19.1304 14.5212 18.5034C15.2634 17.8766 15.9082 17.1574 16.4557 16.3459C15.7647 15.9921 15.0446 15.7209 14.2952 15.5324C13.5459 15.3439 12.7808 15.2497 12 15.2497C11.2192 15.2497 10.4541 15.3439 9.70475 15.5324C8.95542 15.7209 8.23525 15.9921 7.54425 16.3459C8.09175 17.1574 8.73658 17.8766 9.47875 18.5034C10.2211 19.1304 11.0615 19.5959 12 19.8997ZM12 21.3707C11.8962 21.3707 11.7942 21.3624 11.6942 21.3457C11.5942 21.329 11.4974 21.304 11.4037 21.2707C9.29492 20.5207 7.61708 19.1909 6.37025 17.2814C5.12342 15.3718 4.5 13.3112 4.5 11.0997V6.59594C4.5 6.21761 4.60967 5.87628 4.829 5.57195C5.04817 5.26745 5.33017 5.04661 5.675 4.90945L11.3672 2.78445C11.5814 2.70745 11.7923 2.66895 12 2.66895C12.2077 2.66895 12.4186 2.70745 12.6328 2.78445L18.325 4.90945C18.6698 5.04661 18.9518 5.26745 19.171 5.57195C19.3903 5.87628 19.5 6.21761 19.5 6.59594V11.0997C19.5 13.3112 18.8766 15.3718 17.6298 17.2814C16.3829 19.1909 14.7051 20.5207 12.5963 21.2707C12.5026 21.304 12.4058 21.329 12.3058 21.3457C12.2058 21.3624 12.1038 21.3707 12 21.3707Z" fill="#637381"/>
</g>
</g>
</svg>
