<?xml version="1.0" standalone="no"?>
<!DOCTYPE svg PUBLIC "-//W3C//DTD SVG 1.1//EN" "http://www.w3.org/Graphics/SVG/1.1/DTD/svg11.dtd" >
<svg xmlns="http://www.w3.org/2000/svg">
<metadata>Generated by IcoMoon</metadata>
<defs>
<font id="icomoon" horiz-adv-x="1024">
<font-face units-per-em="1024" ascent="960" descent="-64" />
<missing-glyph horiz-adv-x="1024" />
<glyph unicode="&#x20;" horiz-adv-x="512" d="" />
<glyph unicode="&#xe900;" d="M226.471 535.878c-8.541-27.782-13.138-57.295-13.138-87.878 0-164.949 133.718-298.667 298.667-298.667s298.667 133.717 298.667 298.667c0 30.583-4.595 60.096-13.137 87.878-28.983 94.277-103.373 168.669-197.649 197.65-27.785 8.541-57.297 13.138-87.881 13.138s-60.096-4.597-87.878-13.138c-94.277-28.982-168.669-103.373-197.65-197.65zM148.32 571.584c-38.436 31.294-62.987 78.988-62.987 132.416 0 94.257 76.41 170.667 170.667 170.667 53.428 0 101.122-24.551 132.416-62.987 38.78 13.175 80.35 20.32 123.584 20.32s84.804-7.145 123.584-20.32c31.292 38.436 78.989 62.987 132.416 62.987 94.255 0 170.667-76.41 170.667-170.667 0-53.428-24.55-101.122-62.985-132.416 13.171-38.78 20.318-80.35 20.318-123.584 0-114.121-49.783-216.614-128.815-286.95l38.989-77.973c10.539-21.073 1.993-46.703-19.081-57.242-21.077-10.539-46.707-1.997-57.246 19.081l-33.165 66.33c-54.797-30.114-117.739-47.245-184.683-47.245-66.935 0-129.873 17.126-184.666 47.236l-33.162-66.321c-10.538-21.077-36.167-29.619-57.244-19.081s-29.619 36.169-19.080 57.242l38.982 77.961c-79.041 70.336-128.829 172.834-128.829 286.963 0 43.234 7.145 84.804 20.32 123.584z" />
<glyph unicode="&#xe901;" d="M725.333 448c0-117.82-95.514-213.333-213.333-213.333s-213.333 95.514-213.333 213.333c47.896 0 119.691 0 170.671 0 23.565 0 42.662 19.089 42.662 42.654 0 61.441 0 136.544 0 170.679 117.82 0 213.333-95.513 213.333-213.333z" />
<glyph unicode="&#xe902;" d="M388.416 811.68c-112.666-38.274-201.822-127.431-240.096-240.096-38.436 31.294-62.987 78.988-62.987 132.416 0 94.257 76.41 170.667 170.667 170.667 53.428 0 101.122-24.551 132.416-62.987zM512 661.333c23.565 0 42.667-19.103 42.667-42.667v-170.667c0-23.565-19.102-42.667-42.667-42.667h-170.667c-23.564 0-42.667 19.102-42.667 42.667s19.103 42.667 42.667 42.667h128v128c0 23.564 19.102 42.667 42.667 42.667zM875.682 571.584c-38.276 112.665-127.433 201.822-240.098 240.096 31.296 38.436 78.989 62.987 132.416 62.987 94.255 0 170.667-76.41 170.667-170.667 0-53.428-24.55-101.122-62.985-132.416z" />
<glyph unicode="&#xe903;" d="M512 746.667c-164.949 0-298.667-133.718-298.667-298.667s133.718-298.667 298.667-298.667c164.949 0 298.667 133.717 298.667 298.667s-133.717 298.667-298.667 298.667zM128 448c0 212.077 171.923 384 384 384 212.079 0 384-171.923 384-384 0-114.121-49.783-216.614-128.815-286.946l38.985-77.973c10.539-21.073 1.997-46.703-19.081-57.242-21.073-10.539-46.703-1.997-57.242 19.081l-33.165 66.325c-54.797-30.114-117.739-47.245-184.683-47.245-66.94 0-129.875 17.126-184.669 47.241l-33.159-66.321c-10.538-21.077-36.167-29.619-57.243-19.081s-29.62 36.169-19.081 57.242l38.979 77.961c-79.040 70.336-128.826 172.834-128.826 286.959z" />
<glyph unicode="&#xe904;" d="M170.667 64c0 23.565 19.103 42.667 42.667 42.667h597.333c23.565 0 42.667-19.102 42.667-42.667s-19.102-42.667-42.667-42.667h-597.333c-23.564 0-42.667 19.102-42.667 42.667z" />
<glyph unicode="&#xe905;" d="M405.333 874.667c-35.346 0-64-28.654-64-64v-554.667c0-35.345 28.654-64 64-64 35.345 0 64 28.655 64 64v554.667c0 35.346-28.655 64-64 64zM618.667 618.667c-35.345 0-64-28.654-64-64v-298.667c0-35.345 28.655-64 64-64s64 28.655 64 64v298.667c0 35.346-28.655 64-64 64z" />
<glyph unicode="&#xe906;" d="M170.667 64c0 23.565 19.103 42.667 42.667 42.667h597.333c23.565 0 42.667-19.102 42.667-42.667s-19.102-42.667-42.667-42.667h-597.333c-23.564 0-42.667 19.102-42.667 42.667z" />
<glyph unicode="&#xe907;" d="M469.333 832c0 23.564-19.102 42.667-42.667 42.667s-42.667-19.103-42.667-42.667v-597.333c0-23.565 19.103-42.667 42.667-42.667s42.667 19.102 42.667 42.667v597.333zM640 576c0 23.564-19.102 42.667-42.667 42.667s-42.667-19.103-42.667-42.667v-341.333c0-23.565 19.102-42.667 42.667-42.667s42.667 19.102 42.667 42.667v341.333z" />
<glyph unicode="&#xe908;" d="M170.667 64c0 23.565 19.103 42.667 42.667 42.667h597.333c23.565 0 42.667-19.102 42.667-42.667s-19.102-42.667-42.667-42.667h-597.333c-23.564 0-42.667 19.102-42.667 42.667z" />
<glyph unicode="&#xe909;" d="M341.333 874.667c-70.693 0-128-57.307-128-128v-426.667c0-70.694 57.307-128 128-128s128 57.306 128 128v426.667c0 70.693-57.307 128-128 128zM682.667 661.333c-70.694 0-128-57.307-128-128v-213.333c0-70.694 57.306-128 128-128s128 57.306 128 128v213.333c0 70.693-57.306 128-128 128z" />
<glyph unicode="&#xe90a;" d="M170.667 64c0 23.565 19.103 42.667 42.667 42.667h597.333c23.565 0 42.667-19.102 42.667-42.667s-19.102-42.667-42.667-42.667h-597.333c-23.564 0-42.667 19.102-42.667 42.667z" />
<glyph unicode="&#xe90b;" d="M341.333 874.667c-70.692 0-128-57.308-128-128v-426.667c0-70.694 57.308-128 128-128s128 57.306 128 128v426.667c0 70.692-57.308 128-128 128zM298.667 746.667c0 23.564 19.103 42.667 42.667 42.667s42.667-19.103 42.667-42.667v-426.667c0-23.565-19.103-42.667-42.667-42.667s-42.667 19.102-42.667 42.667v426.667zM682.667 661.333c-70.694 0-128-57.308-128-128v-213.333c0-70.694 57.306-128 128-128s128 57.306 128 128v213.333c0 70.692-57.306 128-128 128zM640 533.333c0 23.564 19.102 42.667 42.667 42.667s42.667-19.103 42.667-42.667v-213.333c0-23.565-19.102-42.667-42.667-42.667s-42.667 19.102-42.667 42.667v213.333z" />
<glyph unicode="&#xe90c;" d="M512 874.667c-23.565 0-42.667-19.103-42.667-42.667v-128c0-23.564 19.102-42.667 42.667-42.667s42.667 19.103 42.667 42.667v128c0 23.564-19.102 42.667-42.667 42.667zM512 234.667c-23.565 0-42.667-19.102-42.667-42.667v-128c0-23.565 19.102-42.667 42.667-42.667s42.667 19.102 42.667 42.667v128c0 23.565-19.102 42.667-42.667 42.667z" />
<glyph unicode="&#xe90d;" d="M362.667 618.667c-35.346 0-64-28.654-64-64 0-35.345 28.654-64 64-64h298.667c35.345 0 64 28.655 64 64 0 35.346-28.655 64-64 64h-298.667zM234.667 405.333c-35.346 0-64-28.655-64-64s28.654-64 64-64h554.667c35.345 0 64 28.655 64 64s-28.655 64-64 64h-554.667z" />
<glyph unicode="&#xe90e;" glyph-name="images" horiz-adv-x="1152" d="M1088 832h-64v64c0 35.2-28.8 64-64 64h-896c-35.2 0-64-28.8-64-64v-768c0-35.2 28.8-64 64-64h64v-64c0-35.2 28.8-64 64-64h896c35.2 0 64 28.8 64 64v768c0 35.2-28.8 64-64 64zM128 768v-640h-63.886c-0.040 0.034-0.082 0.076-0.114 0.116v767.77c0.034 0.040 0.076 0.082 0.114 0.114h895.77c0.040-0.034 0.082-0.076 0.116-0.116v-63.884h-768c-35.2 0-64-28.8-64-64v0zM1088 0.116c-0.034-0.040-0.076-0.082-0.116-0.116h-895.77c-0.040 0.034-0.082 0.076-0.114 0.116v767.77c0.034 0.040 0.076 0.082 0.114 0.114h895.77c0.040-0.034 0.082-0.076 0.116-0.116v-767.768zM960 608c0-53.020-42.98-96-96-96s-96 42.98-96 96 42.98 96 96 96 96-42.98 96-96zM1024 64h-768v128l224 384 256-320h64l224 192z" />
<glyph unicode="&#xe90f;" glyph-name="camera" d="M304 352c0-114.876 93.124-208 208-208s208 93.124 208 208-93.124 208-208 208-208-93.124-208-208zM960 704h-224c-16 64-32 128-96 128h-256c-64 0-80-64-96-128h-224c-35.2 0-64-28.8-64-64v-576c0-35.2 28.8-64 64-64h896c35.2 0 64 28.8 64 64v576c0 35.2-28.8 64-64 64zM512 68c-156.85 0-284 127.148-284 284 0 156.85 127.15 284 284 284 156.852 0 284-127.15 284-284 0-156.852-127.146-284-284-284zM960 512h-128v64h128v-64z" />
<glyph unicode="&#xe910;" glyph-name="headphones" d="M288 384h-64v-448h64c17.6 0 32 14.4 32 32v384c0 17.6-14.4 32-32 32zM736 384c-17.602 0-32-14.4-32-32v-384c0-17.6 14.398-32 32-32h64v448h-64zM1024 448c0 282.77-229.23 512-512 512s-512-229.23-512-512c0-61.412 10.83-120.29 30.656-174.848-19.478-33.206-30.656-71.87-30.656-113.152 0-112.846 83.448-206.188 192-221.716v443.418c-31.914-4.566-61.664-15.842-87.754-32.378-5.392 26.718-8.246 54.364-8.246 82.676 0 229.75 186.25 416 416 416s416-186.25 416-416c0-28.314-2.83-55.968-8.22-82.696-26.1 16.546-55.854 27.848-87.78 32.418v-443.44c108.548 15.532 192 108.874 192 221.714 0 41.274-11.178 79.934-30.648 113.138 19.828 54.566 30.648 113.452 30.648 174.866z" />
<glyph unicode="&#xe911;" d="M512 874.667c-23.565 0-42.667-19.103-42.667-42.667v-128c0-23.564 19.102-42.667 42.667-42.667s42.667 19.103 42.667 42.667v128c0 23.564-19.102 42.667-42.667 42.667zM512 234.667c-23.565 0-42.667-19.102-42.667-42.667v-128c0-23.565 19.102-42.667 42.667-42.667s42.667 19.102 42.667 42.667v128c0 23.565-19.102 42.667-42.667 42.667z" />
<glyph unicode="&#xe912;" d="M341.333 576c-23.564 0-42.667-19.103-42.667-42.667s19.103-42.667 42.667-42.667h341.333c23.565 0 42.667 19.102 42.667 42.667s-19.102 42.667-42.667 42.667h-341.333zM213.333 405.333c-23.564 0-42.667-19.102-42.667-42.667s19.103-42.667 42.667-42.667h597.333c23.565 0 42.667 19.102 42.667 42.667s-19.102 42.667-42.667 42.667h-597.333z" />
<glyph unicode="&#xe913;" d="M512 874.667c-23.565 0-42.667-19.102-42.667-42.667v-85.333h85.333v85.333c0 23.564-19.102 42.667-42.667 42.667zM554.667 64v85.333h-85.333v-85.333c0-23.565 19.102-42.667 42.667-42.667s42.667 19.102 42.667 42.667z" />
<glyph unicode="&#xe914;" d="M426.667 746.667c-70.692 0-128-57.308-128-128s57.308-128 128-128h170.667c70.694 0 128 57.308 128 128s-57.306 128-128 128h-170.667zM298.667 405.333c-70.692 0-128-57.306-128-128s57.308-128 128-128h426.667c70.694 0 128 57.306 128 128s-57.306 128-128 128h-426.667z" />
<glyph unicode="&#xe915;" d="M512 874.667c-23.565 0-42.667-19.103-42.667-42.667v-85.333h85.333v85.333c0 23.564-19.102 42.667-42.667 42.667zM554.667 64v85.333h-85.333v-85.333c0-23.565 19.102-42.667 42.667-42.667s42.667 19.102 42.667 42.667z" />
<glyph unicode="&#xe916;" d="M426.667 746.667c-70.692 0-128-57.308-128-128s57.308-128 128-128h170.667c70.694 0 128 57.308 128 128s-57.306 128-128 128h-170.667zM384 618.667c0 23.564 19.103 42.667 42.667 42.667h170.667c23.565 0 42.667-19.103 42.667-42.667s-19.102-42.667-42.667-42.667h-170.667c-23.564 0-42.667 19.103-42.667 42.667zM298.667 405.333c-70.692 0-128-57.306-128-128s57.308-128 128-128h426.667c70.694 0 128 57.306 128 128s-57.306 128-128 128h-426.667zM256 277.333c0 23.565 19.103 42.667 42.667 42.667h426.667c23.565 0 42.667-19.102 42.667-42.667s-19.102-42.667-42.667-42.667h-426.667c-23.564 0-42.667 19.102-42.667 42.667z" />
<glyph unicode="&#xe917;" d="M896 106.667c-23.565 0-42.667 19.102-42.667 42.667v597.333c0 23.564 19.102 42.667 42.667 42.667s42.667-19.102 42.667-42.667v-597.333c0-23.565-19.102-42.667-42.667-42.667z" />
<glyph unicode="&#xe918;" d="M85.333 341.333c0-35.345 28.654-64 64-64h554.667c35.345 0 64 28.655 64 64s-28.655 64-64 64h-554.667c-35.346 0-64-28.655-64-64zM341.333 554.667c0-35.345 28.654-64 64-64h298.667c35.345 0 64 28.655 64 64 0 35.346-28.655 64-64 64h-298.667c-35.346 0-64-28.654-64-64z" />
<glyph unicode="&#xe919;" d="M896 106.667c-23.565 0-42.667 19.102-42.667 42.667v597.333c0 23.564 19.102 42.667 42.667 42.667s42.667-19.102 42.667-42.667v-597.333c0-23.565-19.102-42.667-42.667-42.667z" />
<glyph unicode="&#xe91a;" d="M128 405.333c-23.564 0-42.667-19.102-42.667-42.667s19.103-42.667 42.667-42.667h597.333c23.565 0 42.667 19.102 42.667 42.667s-19.102 42.667-42.667 42.667h-597.333zM384 576c-23.564 0-42.667-19.103-42.667-42.667s19.103-42.667 42.667-42.667h341.333c23.565 0 42.667 19.102 42.667 42.667s-19.102 42.667-42.667 42.667h-341.333z" />
<glyph unicode="&#xe91b;" d="M896 106.667c-23.565 0-42.667 19.102-42.667 42.667v597.333c0 23.564 19.102 42.667 42.667 42.667s42.667-19.102 42.667-42.667v-597.333c0-23.565-19.102-42.667-42.667-42.667z" />
<glyph unicode="&#xe91c;" d="M85.333 277.333c0-70.694 57.308-128 128-128h426.667c70.694 0 128 57.306 128 128s-57.306 128-128 128h-426.667c-70.692 0-128-57.306-128-128zM298.667 618.667c0-70.692 57.308-128 128-128h213.333c70.694 0 128 57.308 128 128s-57.306 128-128 128h-213.333c-70.692 0-128-57.308-128-128z" />
<glyph unicode="&#xe91d;" d="M896 106.667c-23.565 0-42.667 19.102-42.667 42.667v597.333c0 23.564 19.102 42.667 42.667 42.667s42.667-19.102 42.667-42.667v-597.333c0-23.565-19.102-42.667-42.667-42.667z" />
<glyph unicode="&#xe91e;" d="M85.333 277.333c0-70.694 57.308-128 128-128h426.667c70.694 0 128 57.306 128 128s-57.306 128-128 128h-426.667c-70.692 0-128-57.306-128-128zM213.333 234.667c-23.564 0-42.667 19.102-42.667 42.667s19.103 42.667 42.667 42.667h426.667c23.565 0 42.667-19.102 42.667-42.667s-19.102-42.667-42.667-42.667h-426.667zM298.667 618.667c0-70.692 57.308-128 128-128h213.333c70.694 0 128 57.308 128 128s-57.306 128-128 128h-213.333c-70.692 0-128-57.308-128-128zM426.667 576c-23.564 0-42.667 19.102-42.667 42.667s19.103 42.667 42.667 42.667h213.333c23.565 0 42.667-19.103 42.667-42.667s-19.102-42.667-42.667-42.667h-213.333z" />
<glyph unicode="&#xe91f;" d="M85.333 448c0-23.565 19.103-42.667 42.667-42.667h128c23.564 0 42.667 19.102 42.667 42.667s-19.103 42.667-42.667 42.667h-128c-23.564 0-42.667-19.102-42.667-42.667zM725.333 448c0-23.565 19.102-42.667 42.667-42.667h128c23.565 0 42.667 19.102 42.667 42.667s-19.102 42.667-42.667 42.667h-128c-23.565 0-42.667-19.102-42.667-42.667z" />
<glyph unicode="&#xe920;" d="M341.333 298.667c0-35.345 28.654-64 64-64 35.345 0 64 28.655 64 64v298.667c0 35.346-28.655 64-64 64-35.346 0-64-28.654-64-64v-298.667zM554.667 170.667c0-35.345 28.655-64 64-64s64 28.655 64 64v554.667c0 35.346-28.655 64-64 64s-64-28.654-64-64v-554.667z" />
<glyph unicode="&#xe921;" glyph-name="library" horiz-adv-x="1088" d="M1024 0v64h-64v384h64v64h-192v-64h64v-384h-192v384h64v64h-192v-64h64v-384h-192v384h64v64h-192v-64h64v-384h-192v384h64v64h-192v-64h64v-384h-64v-64h-64v-64h1088v64h-64zM512 960h64l512-320v-64h-1088v64l512 320z" />
<glyph unicode="&#xe922;" glyph-name="file-text" d="M864 960h-768c-52.8 0-96-43.2-96-96v-832c0-52.8 43.2-96 96-96h768c52.8 0 96 43.2 96 96v832c0 52.8-43.2 96-96 96zM832 64h-704v768h704v-768zM256 512h448v-64h-448zM256 384h448v-64h-448zM256 256h448v-64h-448zM256 640h448v-64h-448z" />
<glyph unicode="&#xe923;" glyph-name="profile" d="M864 960h-768c-52.8 0-96-43.2-96-96v-832c0-52.8 43.2-96 96-96h768c52.8 0 96 43.2 96 96v832c0 52.8-43.2 96-96 96zM832 64h-704v768h704v-768zM256 384h448v-64h-448zM256 256h448v-64h-448zM320 672c0 53.019 42.981 96 96 96s96-42.981 96-96c0-53.019-42.981-96-96-96s-96 42.981-96 96zM480 576h-128c-52.8 0-96-28.8-96-64v-64h320v64c0 35.2-43.2 64-96 64z" />
<glyph unicode="&#xe924;" d="M85.333 448c0-23.565 19.103-42.667 42.667-42.667h128c23.564 0 42.667 19.102 42.667 42.667s-19.103 42.667-42.667 42.667h-128c-23.564 0-42.667-19.102-42.667-42.667zM725.333 448c0-23.565 19.102-42.667 42.667-42.667h128c23.565 0 42.667 19.102 42.667 42.667s-19.102 42.667-42.667 42.667h-128c-23.565 0-42.667-19.102-42.667-42.667z" />
<glyph unicode="&#xe925;" d="M384 277.333c0-23.565 19.103-42.667 42.667-42.667s42.667 19.102 42.667 42.667v341.333c0 23.564-19.102 42.667-42.667 42.667s-42.667-19.103-42.667-42.667v-341.333zM554.667 149.333c0-23.565 19.102-42.667 42.667-42.667s42.667 19.102 42.667 42.667v597.333c0 23.564-19.102 42.667-42.667 42.667s-42.667-19.102-42.667-42.667v-597.333z" />
<glyph unicode="&#xe926;" d="M85.333 448c0-23.565 19.103-42.667 42.667-42.667h85.333v85.333h-85.333c-23.564 0-42.667-19.102-42.667-42.667zM896 490.667h-85.333v-85.333h85.333c23.565 0 42.667 19.102 42.667 42.667s-19.102 42.667-42.667 42.667z" />
<glyph unicode="&#xe927;" d="M213.333 362.667c0-70.694 57.308-128 128-128s128 57.306 128 128v170.667c0 70.692-57.308 128-128 128s-128-57.308-128-128v-170.667zM554.667 234.667c0-70.694 57.306-128 128-128s128 57.306 128 128v426.667c0 70.692-57.306 128-128 128s-128-57.308-128-128v-426.667z" />
<glyph unicode="&#xe928;" d="M85.333 448c0-23.565 19.102-42.667 42.667-42.667h85.333v85.333h-85.333c-23.564 0-42.667-19.102-42.667-42.667zM896 490.667h-85.333v-85.333h85.333c23.565 0 42.667 19.102 42.667 42.667s-19.102 42.667-42.667 42.667z" />
<glyph unicode="&#xe929;" d="M213.333 362.667c0-70.694 57.308-128 128-128s128 57.306 128 128v170.667c0 70.692-57.308 128-128 128s-128-57.308-128-128v-170.667zM341.333 320c-23.564 0-42.667 19.102-42.667 42.667v170.667c0 23.564 19.103 42.667 42.667 42.667s42.667-19.103 42.667-42.667v-170.667c0-23.565-19.103-42.667-42.667-42.667zM554.667 234.667c0-70.694 57.306-128 128-128s128 57.306 128 128v426.667c0 70.692-57.306 128-128 128s-128-57.308-128-128v-426.667zM682.667 192c-23.565 0-42.667 19.102-42.667 42.667v426.667c0 23.564 19.102 42.667 42.667 42.667s42.667-19.103 42.667-42.667v-426.667c0-23.565-19.102-42.667-42.667-42.667z" />
<glyph unicode="&#xe92a;" d="M128 106.667c23.564 0 42.667 19.102 42.667 42.667v597.333c0 23.564-19.103 42.667-42.667 42.667s-42.667-19.102-42.667-42.667v-597.333c0-23.565 19.103-42.667 42.667-42.667z" />
<glyph unicode="&#xe92b;" d="M938.667 341.333c0-35.345-28.655-64-64-64h-554.667c-35.346 0-64 28.655-64 64s28.654 64 64 64h554.667c35.345 0 64-28.655 64-64zM682.667 554.667c0-35.345-28.655-64-64-64h-298.667c-35.346 0-64 28.655-64 64 0 35.346 28.654 64 64 64h298.667c35.345 0 64-28.654 64-64z" />
<glyph unicode="&#xe92c;" d="M128 106.667c23.564 0 42.667 19.102 42.667 42.667v597.333c0 23.564-19.103 42.667-42.667 42.667s-42.667-19.102-42.667-42.667v-597.333c0-23.565 19.103-42.667 42.667-42.667z" />
<glyph unicode="&#xe92d;" d="M896 405.333c23.565 0 42.667-19.102 42.667-42.667s-19.102-42.667-42.667-42.667h-597.333c-23.564 0-42.667 19.102-42.667 42.667s19.102 42.667 42.667 42.667h597.333zM640 576c23.565 0 42.667-19.103 42.667-42.667s-19.102-42.667-42.667-42.667h-341.333c-23.564 0-42.667 19.102-42.667 42.667s19.102 42.667 42.667 42.667h341.333z" />
<glyph unicode="&#xe92e;" d="M128 106.667c23.564 0 42.667 19.102 42.667 42.667v597.333c0 23.564-19.103 42.667-42.667 42.667s-42.667-19.102-42.667-42.667v-597.333c0-23.565 19.103-42.667 42.667-42.667z" />
<glyph unicode="&#xe92f;" d="M938.667 277.333c0-70.694-57.306-128-128-128h-426.667c-70.692 0-128 57.306-128 128s57.308 128 128 128h426.667c70.694 0 128-57.306 128-128zM725.333 618.667c0-70.692-57.306-128-128-128h-213.333c-70.692 0-128 57.308-128 128s57.308 128 128 128h213.333c70.694 0 128-57.308 128-128z" />
<glyph unicode="&#xe930;" d="M128 106.667c23.564 0 42.667 19.102 42.667 42.667v597.333c0 23.564-19.103 42.667-42.667 42.667s-42.667-19.102-42.667-42.667v-597.333c0-23.565 19.103-42.667 42.667-42.667z" />
<glyph unicode="&#xe931;" d="M938.667 277.333c0-70.694-57.306-128-128-128h-426.667c-70.692 0-128 57.306-128 128s57.308 128 128 128h426.667c70.694 0 128-57.306 128-128zM810.667 234.667c23.565 0 42.667 19.102 42.667 42.667s-19.102 42.667-42.667 42.667h-426.667c-23.564 0-42.667-19.102-42.667-42.667s19.103-42.667 42.667-42.667h426.667zM725.333 618.667c0-70.692-57.306-128-128-128h-213.333c-70.692 0-128 57.308-128 128s57.308 128 128 128h213.333c70.694 0 128-57.308 128-128zM597.333 576c23.565 0 42.667 19.102 42.667 42.667s-19.102 42.667-42.667 42.667h-213.333c-23.564 0-42.667-19.103-42.667-42.667s19.103-42.667 42.667-42.667h213.333z" />
<glyph unicode="&#xe932;" d="M853.333 832c0-23.564-19.102-42.667-42.667-42.667h-597.333c-23.564 0-42.667 19.103-42.667 42.667s19.102 42.667 42.667 42.667h597.333c23.565 0 42.667-19.103 42.667-42.667z" />
<glyph unicode="&#xe933;" d="M618.667 21.333c35.345 0 64 28.655 64 64v554.667c0 35.346-28.655 64-64 64s-64-28.654-64-64v-554.667c0-35.345 28.655-64 64-64zM405.333 277.333c35.345 0 64 28.655 64 64v298.667c0 35.346-28.655 64-64 64-35.346 0-64-28.654-64-64v-298.667c0-35.345 28.654-64 64-64z" />
<glyph unicode="&#xe934;" glyph-name="folder-upload" d="M576 704l-128 128h-448v-832h1024v704h-448zM512 480l224-224h-160v-256h-128v256h-160l224 224z" />
<glyph unicode="&#xe935;" glyph-name="price-tag" d="M976 960h-384c-26.4 0-63.274-15.274-81.942-33.942l-476.116-476.116c-18.668-18.668-18.668-49.214 0-67.882l412.118-412.118c18.668-18.668 49.214-18.668 67.882 0l476.118 476.118c18.666 18.666 33.94 55.54 33.94 81.94v384c0 26.4-21.6 48-48 48zM736 576c-53.020 0-96 42.98-96 96s42.98 96 96 96 96-42.98 96-96-42.98-96-96-96z" />
<glyph unicode="&#xe936;" glyph-name="price-tags" horiz-adv-x="1280" d="M1232 960h-384c-26.4 0-63.274-15.274-81.942-33.942l-476.116-476.116c-18.668-18.668-18.668-49.214 0-67.882l412.118-412.118c18.668-18.668 49.214-18.668 67.882 0l476.118 476.118c18.666 18.666 33.94 55.54 33.94 81.94v384c0 26.4-21.6 48-48 48zM992 576c-53.020 0-96 42.98-96 96s42.98 96 96 96 96-42.98 96-96-42.98-96-96-96zM128 416l544 544h-80c-26.4 0-63.274-15.274-81.942-33.942l-476.116-476.116c-18.668-18.668-18.668-49.214 0-67.882l412.118-412.118c18.668-18.668 49.214-18.668 67.882 0l30.058 30.058-416 416z" />
<glyph unicode="&#xe937;" d="M853.333 832c0-23.564-19.102-42.667-42.667-42.667h-597.333c-23.564 0-42.667 19.103-42.667 42.667s19.102 42.667 42.667 42.667h597.333c23.565 0 42.667-19.103 42.667-42.667z" />
<glyph unicode="&#xe938;" d="M554.667 64c0-23.565 19.102-42.667 42.667-42.667s42.667 19.102 42.667 42.667v597.333c0 23.564-19.102 42.667-42.667 42.667s-42.667-19.102-42.667-42.667v-597.333zM384 320c0-23.565 19.103-42.667 42.667-42.667s42.667 19.102 42.667 42.667v341.333c0 23.564-19.102 42.667-42.667 42.667s-42.667-19.102-42.667-42.667v-341.333z" />
<glyph unicode="&#xe939;" d="M853.333 832c0-23.564-19.102-42.667-42.667-42.667h-597.333c-23.564 0-42.667 19.103-42.667 42.667s19.102 42.667 42.667 42.667h597.333c23.565 0 42.667-19.103 42.667-42.667z" />
<glyph unicode="&#xe93a;" d="M682.667 21.333c70.694 0 128 57.306 128 128v426.667c0 70.692-57.306 128-128 128s-128-57.308-128-128v-426.667c0-70.694 57.306-128 128-128zM341.333 234.667c70.692 0 128 57.306 128 128v213.333c0 70.692-57.308 128-128 128s-128-57.308-128-128v-213.333c0-70.694 57.308-128 128-128z" />
<glyph unicode="&#xe93b;" d="M853.333 832c0-23.564-19.102-42.667-42.667-42.667h-597.333c-23.564 0-42.667 19.103-42.667 42.667s19.102 42.667 42.667 42.667h597.333c23.565 0 42.667-19.103 42.667-42.667z" />
<glyph unicode="&#xe93c;" d="M682.667 21.333c70.694 0 128 57.306 128 128v426.667c0 70.692-57.306 128-128 128s-128-57.308-128-128v-426.667c0-70.694 57.306-128 128-128zM725.333 149.333c0-23.565-19.102-42.667-42.667-42.667s-42.667 19.102-42.667 42.667v426.667c0 23.564 19.102 42.667 42.667 42.667s42.667-19.103 42.667-42.667v-426.667zM341.333 234.667c70.692 0 128 57.306 128 128v213.333c0 70.692-57.308 128-128 128s-128-57.308-128-128v-213.333c0-70.694 57.308-128 128-128zM384 362.667c0-23.565-19.102-42.667-42.667-42.667s-42.667 19.102-42.667 42.667v213.333c0 23.564 19.103 42.667 42.667 42.667s42.667-19.103 42.667-42.667v-213.333z" />
<glyph unicode="&#xe93d;" d="M128 661.333c0 94.257 76.41 170.667 170.667 170.667h426.667c94.255 0 170.667-76.41 170.667-170.667v-426.667c0-94.255-76.412-170.667-170.667-170.667h-426.667c-94.257 0-170.667 76.412-170.667 170.667v426.667z" />
<glyph unicode="&#xe93e;" d="M597.333 661.333c-16.162 0-30.933-9.131-38.161-23.586l-158.875-317.748h-58.964c-23.564 0-42.667-19.102-42.667-42.667s19.103-42.667 42.667-42.667h85.333c16.162 0 30.933 9.131 38.161 23.586l158.874 317.747h58.965c23.565 0 42.667 19.103 42.667 42.667s-19.102 42.667-42.667 42.667h-85.333zM597.333 320c-23.565 0-42.667-19.102-42.667-42.667s19.102-42.667 42.667-42.667h85.333c23.565 0 42.667 19.102 42.667 42.667s-19.102 42.667-42.667 42.667h-85.333z" />
<glyph unicode="&#xe93f;" d="M128 661.333c0 94.257 76.41 170.667 170.667 170.667h426.667c94.255 0 170.667-76.41 170.667-170.667v-426.667c0-94.255-76.412-170.667-170.667-170.667h-426.667c-94.257 0-170.667 76.412-170.667 170.667v426.667zM298.667 746.667c-47.128 0-85.333-38.205-85.333-85.333v-426.667c0-47.13 38.205-85.333 85.333-85.333h426.667c47.13 0 85.333 38.204 85.333 85.333v426.667c0 47.128-38.204 85.333-85.333 85.333h-426.667z" />
<glyph unicode="&#xe940;" d="M597.333 661.333c-16.162 0-30.933-9.131-38.161-23.586l-158.875-317.748h-58.964c-23.564 0-42.667-19.102-42.667-42.667s19.103-42.667 42.667-42.667h85.333c16.162 0 30.933 9.131 38.161 23.586l158.874 317.747h58.965c23.565 0 42.667 19.103 42.667 42.667s-19.102 42.667-42.667 42.667h-85.333zM597.333 320c-23.565 0-42.667-19.102-42.667-42.667s19.102-42.667 42.667-42.667h85.333c23.565 0 42.667 19.102 42.667 42.667s-19.102 42.667-42.667 42.667h-85.333z" />
<glyph unicode="&#xe941;" d="M128 661.333c0 94.257 76.41 170.667 170.667 170.667h426.667c94.255 0 170.667-76.41 170.667-170.667v-426.667c0-94.255-76.412-170.667-170.667-170.667h-426.667c-94.257 0-170.667 76.412-170.667 170.667v426.667zM298.667 746.667c-47.128 0-85.333-38.205-85.333-85.333v-426.667c0-47.13 38.205-85.333 85.333-85.333h426.667c47.13 0 85.333 38.204 85.333 85.333v426.667c0 47.128-38.204 85.333-85.333 85.333h-426.667z" />
<glyph unicode="&#xe942;" d="M298.667 661.333h426.667v-426.667h-426.667v426.667z" />
<glyph unicode="&#xe943;" d="M853.333 537.6c-13.786-2.799-28.053-4.267-42.667-4.267-117.82 0-213.333 95.513-213.333 213.333 0 14.612 1.468 28.88 4.267 42.667h-302.933c-94.257 0-170.667-76.41-170.667-170.667v-384c0-94.255 76.41-170.667 170.667-170.667h384c94.255 0 170.667 76.412 170.667 170.667v302.934z" />
<glyph unicode="&#xe944;" d="M938.667 746.667c0-70.692-57.306-128-128-128s-128 57.308-128 128c0 70.692 57.306 128 128 128s128-57.308 128-128z" />
<glyph unicode="&#xe945;" d="M768 789.333c-47.13 0-85.333-38.205-85.333-85.333s38.204-85.333 85.333-85.333c47.13 0 85.333 38.205 85.333 85.333s-38.204 85.333-85.333 85.333zM597.333 704c0 94.257 76.412 170.667 170.667 170.667s170.667-76.41 170.667-170.667c0-94.257-76.412-170.667-170.667-170.667s-170.667 76.41-170.667 170.667z" />
<glyph unicode="&#xe946;" d="M298.676 704c-47.132 0-85.343-38.209-85.343-85.333v-384c0-47.13 38.205-85.333 85.333-85.333h384c47.125 0 85.333 38.208 85.333 85.342v170.658c0 23.565 19.102 42.667 42.667 42.667s42.667-19.102 42.667-42.667v-170.658c0-94.255-76.407-170.675-170.667-170.675h-384c-94.257 0-170.667 76.412-170.667 170.667v384c0 94.261 76.424 170.667 170.676 170.667h170.657c23.565 0 42.667-19.103 42.667-42.667s-19.102-42.667-42.667-42.667h-170.657z" />
<glyph unicode="&#xe947;" glyph-name="location" d="M512 960c-176.732 0-320-143.268-320-320 0-320 320-704 320-704s320 384 320 704c0 176.732-143.27 320-320 320zM512 448c-106.040 0-192 85.96-192 192s85.96 192 192 192 192-85.96 192-192-85.96-192-192-192z" />
<glyph unicode="&#xe948;" glyph-name="location2" d="M512 960c-176.732 0-320-143.268-320-320 0-320 320-704 320-704s320 384 320 704c0 176.732-143.27 320-320 320zM512 444c-108.248 0-196 87.752-196 196s87.752 196 196 196 196-87.752 196-196-87.752-196-196-196zM388 640c0 68.483 55.517 124 124 124s124-55.517 124-124c0-68.483-55.517-124-124-124s-124 55.517-124 124z" />
<glyph unicode="&#xe949;" glyph-name="compass" d="M544.010-64.004c-2.296 0-4.622 0.25-6.94 0.764-14.648 3.25-25.070 16.238-25.070 31.24v480h-480c-15.002 0-27.992 10.422-31.24 25.070-3.25 14.646 4.114 29.584 17.708 35.928l960 448c12.196 5.688 26.644 3.144 36.16-6.372 9.516-9.514 12.060-23.966 6.372-36.16l-448-960c-5.342-11.44-16.772-18.47-28.99-18.47zM176.242 512h367.758c17.674 0 32-14.328 32-32v-367.758l349.79 749.546-749.548-349.788z" />
<glyph unicode="&#xe94a;" glyph-name="app" d="M128 661.333c0 94.257 76.41 170.667 170.667 170.667h426.667c94.255 0 170.667-76.41 170.667-170.667v-426.667c0-94.255-76.412-170.667-170.667-170.667h-426.667c-94.257 0-170.667 76.412-170.667 170.667v426.667zM298.667 746.667c-47.128 0-85.333-38.205-85.333-85.333v-426.667c0-47.13 38.205-85.333 85.333-85.333h426.667c47.13 0 85.333 38.204 85.333 85.333v426.667c0 47.128-38.204 85.333-85.333 85.333h-426.667z" />
<glyph unicode="&#xe94b;" d="M896 576v-341.333c0-94.255-76.412-170.667-170.667-170.667h-426.667c-94.257 0-170.667 76.412-170.667 170.667v341.333h768zM448 490.667c-35.346 0-64-28.655-64-64s28.654-64 64-64h128c35.345 0 64 28.655 64 64s-28.655 64-64 64h-128z" />
<glyph unicode="&#xe94c;" d="M85.333 704c0 94.257 76.41 170.667 170.667 170.667h512c94.255 0 170.667-76.41 170.667-170.667v-42.667h-853.333v42.667z" />
<glyph unicode="&#xe94d;" d="M213.333 661.333v-426.667c0-47.13 38.205-85.333 85.333-85.333h426.667c47.13 0 85.333 38.204 85.333 85.329v426.671h85.333v-426.671c0-94.255-76.412-170.662-170.667-170.662h-426.667c-94.257 0-170.667 76.407-170.667 170.667v426.667h85.333z" />
<glyph unicode="&#xe94e;" d="M256 874.667c-94.257 0-170.667-76.41-170.667-170.667v-21.333c0-35.346 28.654-64 64-64h725.333c35.345 0 64 28.654 64 64v21.333c0 94.257-76.412 170.667-170.667 170.667h-512zM170.667 704c0 47.128 38.205 85.333 85.333 85.333h512c47.13 0 85.333-38.205 85.333-85.333h-682.667zM448 533.333c-58.91 0-106.667-47.757-106.667-106.667s47.756-106.667 106.667-106.667h128c58.91 0 106.667 47.757 106.667 106.667s-47.757 106.667-106.667 106.667h-128zM426.667 426.667c0 11.78 9.553 21.333 21.333 21.333h128c11.78 0 21.333-9.553 21.333-21.333s-9.553-21.333-21.333-21.333h-128c-11.78 0-21.333 9.553-21.333 21.333z" />
<glyph unicode="&#xe94f;" d="M512 832c-94.257 0-170.667-76.41-170.667-170.667v-341.333h85.333v341.333c0 47.129 38.204 85.333 85.333 85.333h341.333c23.565 0 42.667 19.103 42.667 42.667s-19.102 42.667-42.667 42.667h-341.333z" />
<glyph unicode="&#xe950;" d="M640 320h-512l256-256 256 256z" />
<glyph unicode="&#xe951;" d="M512 832c-94.257 0-170.667-76.41-170.667-170.667v-451.665c42.667-42.833 42.667-42.833 42.667-42.833s0 0 42.667 42.842v451.657c0 47.128 38.204 85.333 85.333 85.333h341.333c23.565 0 42.667 19.103 42.667 42.667s-19.102 42.667-42.667 42.667h-341.333z" />
<glyph unicode="&#xe952;" d="M170.663 380.343l213.333-213.333 213.333 213.333 60.339-60.339-243.503-243.503c-16.662-16.666-43.677-16.666-60.34 0l-243.503 243.503 60.34 60.339z" />
<glyph unicode="&#xe953;" d="M896 448c0 94.257-76.412 170.667-170.667 170.667h-341.333v-85.333h341.333c47.13 0 85.333-38.204 85.333-85.333v-341.333c0-23.565 19.102-42.667 42.667-42.667s42.667 19.102 42.667 42.667v341.333z" />
<glyph unicode="&#xe954;" d="M384 320v512l-256-256 256-256z" />
<glyph unicode="&#xe955;" d="M896 448c0 94.257-76.412 170.667-170.667 170.667h-451.665c-42.834-42.667-42.834-42.667-42.834-42.667s0 0 42.842-42.667h451.657c47.13 0 85.333-38.204 85.333-85.333v-341.333c0-23.565 19.102-42.667 42.667-42.667s42.667 19.102 42.667 42.667v341.333z" />
<glyph unicode="&#xe956;" d="M444.335 789.347l-213.334-213.333 213.334-213.335-60.34-60.339-243.503 243.504c-16.662 16.662-16.662 43.677 0 60.34l243.503 243.503 60.34-60.34z" />
<glyph unicode="&#xe957;" d="M128 448c0 94.257 76.41 170.667 170.667 170.667h341.333v-85.333h-341.333c-47.129 0-85.333-38.204-85.333-85.333v-341.333c0-23.565-19.103-42.667-42.667-42.667s-42.667 19.102-42.667 42.667v341.333z" />
<glyph unicode="&#xe958;" d="M640 320v512l256-256-256-256z" />
<glyph unicode="&#xe959;" d="M128 448c0 94.257 76.41 170.667 170.667 170.667h451.665c42.833-42.667 42.833-42.667 42.833-42.667s0 0-42.842-42.667h-451.657c-47.128 0-85.333-38.204-85.333-85.333v-341.333c0-23.565-19.103-42.667-42.667-42.667s-42.667 19.102-42.667 42.667v341.333z" />
<glyph unicode="&#xe95a;" glyph-name="tablet" d="M800 960h-640c-52.8 0-96-43.2-96-96v-832c0-52.8 43.2-96 96-96h640c52.8 0 96 43.2 96 96v832c0 52.8-43.2 96-96 96zM480-32c-17.672 0-32 14.326-32 32s14.328 32 32 32 32-14.326 32-32-14.328-32-32-32zM768 64h-576v768h576v-768z" />
<glyph unicode="&#xe95b;" glyph-name="tv" d="M981.188 671.892c-88.808 12.768-183.382 22.016-282.076 27.22l164.888 164.888-64 64-224.558-224.556c-21.006 0.368-42.156 0.556-63.442 0.556v0l-256 256-64-64 194.196-194.196c-120.922-4.242-236.338-14.524-343.386-29.912-27.532-107.726-42.81-226.752-42.81-351.892s15.278-244.166 42.804-351.89c143.642-20.652 302.34-32.11 469.196-32.11s325.55 11.458 469.188 32.11c27.534 107.724 42.812 226.75 42.812 351.89s-15.278 244.166-42.812 351.892zM863.892 85.406c-107.73-13.766-226.75-21.406-351.892-21.406s-244.166 7.64-351.892 21.406c-20.648 71.816-32.108 151.166-32.108 234.594 0 83.43 11.458 162.78 32.108 234.596 107.726 13.766 226.75 21.404 351.892 21.404 125.136 0 244.162-7.638 351.886-21.404 20.656-71.816 32.114-151.166 32.114-234.596 0-83.428-11.458-162.778-32.108-234.594z" />
<glyph unicode="&#xe95c;" glyph-name="drawer" d="M1016.988 307.99l-256 320c-6.074 7.592-15.266 12.010-24.988 12.010h-448c-9.72 0-18.916-4.418-24.988-12.010l-256-320c-4.538-5.674-7.012-12.724-7.012-19.99v-288c0-35.346 28.654-64 64-64h896c35.348 0 64 28.654 64 64v288c0 7.266-2.472 14.316-7.012 19.99zM960 256h-224l-128-128h-192l-128 128h-224v20.776l239.38 299.224h417.24l239.38-299.224v-20.776zM736 448h-448c-17.672 0-32 14.328-32 32s14.328 32 32 32h448c17.674 0 32-14.328 32-32s-14.326-32-32-32zM800 320h-576c-17.672 0-32 14.326-32 32s14.328 32 32 32h576c17.674 0 32-14.326 32-32s-14.326-32-32-32z" />
<glyph unicode="&#xe95d;" d="M579.665 789.347l213.333-213.333-213.333-213.335 60.343-60.339 243.503 243.504c16.661 16.662 16.661 43.677 0 60.34l-243.503 243.503-60.343-60.34z" />
<glyph unicode="&#xe95e;" d="M512 64c-94.257 0-170.667 76.412-170.667 170.667v341.333h85.333v-341.333c0-47.13 38.204-85.333 85.333-85.333h341.333c23.565 0 42.667-19.102 42.667-42.667s-19.102-42.667-42.667-42.667h-341.333z" />
<glyph unicode="&#xe95f;" d="M640 576h-512l256 256 256-256z" />
<glyph unicode="&#xe960;" d="M512 64c-94.257 0-170.667 76.412-170.667 170.667v451.665c42.667 42.834 42.667 42.834 42.667 42.834s0 0 42.667-42.842v-451.657c0-47.13 38.204-85.333 85.333-85.333h341.333c23.565 0 42.667-19.102 42.667-42.667s-19.102-42.667-42.667-42.667h-341.333z" />
<glyph unicode="&#xe961;" d="M170.673 515.661l213.333 213.333 213.335-213.333 60.339 60.339-243.505 243.503c-16.663 16.662-43.677 16.662-60.34 0l-243.503-243.503 60.34-60.339z" />
<glyph unicode="&#xe962;" d="M128 789.333c0 23.564 19.103 42.667 42.667 42.667h682.667c23.565 0 42.667-19.103 42.667-42.667s-19.102-42.667-42.667-42.667h-682.667c-23.564 0-42.667 19.103-42.667 42.667z" />
<glyph unicode="&#xe963;" d="M554.667 618.667c0 23.564-19.102 42.667-42.667 42.667s-42.667-19.103-42.667-42.667v-298.667h-213.333l256-256 256 256h-213.333v298.667z" />
<glyph unicode="&#xe964;" d="M128 789.333c0 23.564 19.103 42.667 42.667 42.667h682.667c23.565 0 42.667-19.103 42.667-42.667s-19.102-42.667-42.667-42.667h-682.667c-23.564 0-42.667 19.103-42.667 42.667z" />
<glyph unicode="&#xe965;" d="M554.667 618.667c0 23.564-19.102 42.667-42.667 42.667s-42.667-19.103-42.667-42.667v-408.99l-170.66 170.662-60.34-60.339 243.1-243.102c1.545-1.583 3.209-3.046 4.975-4.378 2.295-1.724 4.723-3.183 7.245-4.386 4.804-2.291 10.108-3.712 15.701-4.053 2.287-0.141 4.587-0.098 6.869 0.124 2.731 0.269 5.389 0.798 7.945 1.557 6.592 1.954 12.804 5.53 18.010 10.735l243.503 243.503-60.339 60.339-170.675-170.675v409.003z" />
<glyph unicode="&#xe966;" d="M853.333 64c23.565 0 42.667 19.102 42.667 42.667v682.667c0 23.564-19.102 42.667-42.667 42.667s-42.667-19.103-42.667-42.667v-682.667c0-23.565 19.102-42.667 42.667-42.667z" />
<glyph unicode="&#xe967;" d="M682.667 490.667c23.565 0 42.667-19.102 42.667-42.667s-19.102-42.667-42.667-42.667h-298.667v-213.333l-256 256 256 256v-213.333h298.667z" />
<glyph unicode="&#xe968;" d="M853.333 64c23.565 0 42.667 19.102 42.667 42.667v682.667c0 23.564-19.102 42.667-42.667 42.667s-42.667-19.103-42.667-42.667v-682.667c0-23.565 19.102-42.667 42.667-42.667z" />
<glyph unicode="&#xe969;" d="M682.667 490.662c23.565 0 42.667-19.102 42.667-42.667s-19.102-42.667-42.667-42.667h-408.987l170.659-170.658-60.339-60.343-243.101 243.102c-1.583 1.545-3.046 3.209-4.375 4.975-1.724 2.295-3.186 4.723-4.387 7.245-2.293 4.804-3.713 10.108-4.055 15.701-0.142 2.287-0.1 4.587 0.126 6.869 0.268 2.731 0.795 5.389 1.554 7.945 1.954 6.592 5.532 12.804 10.735 18.010l243.503 243.503 60.339-60.34-170.673-170.675h409z" />
<glyph unicode="&#xe96a;" d="M170.667 64c-23.564 0-42.667 19.102-42.667 42.667v682.667c0 23.564 19.103 42.667 42.667 42.667s42.667-19.103 42.667-42.667v-682.667c0-23.565-19.103-42.667-42.667-42.667z" />
<glyph unicode="&#xe96b;" d="M341.333 490.667c-23.564 0-42.667-19.102-42.667-42.667s19.103-42.667 42.667-42.667h298.667v-213.333l256 256-256 256v-213.333h-298.667z" />
<glyph unicode="&#xe96c;" d="M170.667 64c-23.564 0-42.667 19.102-42.667 42.667v682.667c0 23.564 19.103 42.667 42.667 42.667s42.667-19.103 42.667-42.667v-682.667c0-23.565-19.103-42.667-42.667-42.667z" />
<glyph unicode="&#xe96d;" glyph-name="bubbles2" horiz-adv-x="1152" d="M480 960v0c265.096 0 480-173.914 480-388.448s-214.904-388.448-480-388.448c-25.458 0-50.446 1.62-74.834 4.71-103.106-102.694-222.172-121.108-341.166-123.814v25.134c64.252 31.354 116 88.466 116 153.734 0 9.106-0.712 18.048-2.030 26.794-108.558 71.214-177.97 179.988-177.97 301.89 0 214.534 214.904 388.448 480 388.448zM996 89.314c0-55.942 36.314-104.898 92-131.772v-21.542c-103.126 2.318-197.786 18.102-287.142 106.126-21.14-2.65-42.794-4.040-64.858-4.040-95.47 0-183.408 25.758-253.614 69.040 144.674 0.506 281.26 46.854 384.834 130.672 52.208 42.252 93.394 91.826 122.414 147.348 30.766 58.866 46.366 121.582 46.366 186.406 0 10.448-0.45 20.836-1.258 31.168 72.57-59.934 117.258-141.622 117.258-231.676 0-104.488-60.158-197.722-154.24-258.764-1.142-7.496-1.76-15.16-1.76-22.966z" />
<glyph unicode="&#xe96e;" glyph-name="bubble2" d="M512 768c-54.932 0-107.988-8.662-157.694-25.742-46.712-16.054-88.306-38.744-123.628-67.444-66.214-53.798-102.678-122.984-102.678-194.814 0-40.298 11.188-79.378 33.252-116.152 22.752-37.92 56.982-72.586 98.988-100.252 30.356-19.992 50.78-51.948 56.176-87.894 1.8-11.984 2.928-24.088 3.37-36.124 7.47 6.194 14.75 12.846 21.88 19.976 24.154 24.152 56.78 37.49 90.502 37.49 5.368 0 10.762-0.336 16.156-1.024 20.974-2.666 42.398-4.020 63.676-4.020 54.934 0 107.988 8.66 157.694 25.742 46.712 16.054 88.306 38.744 123.628 67.444 66.214 53.796 102.678 122.984 102.678 194.814s-36.464 141.016-102.678 194.814c-35.322 28.698-76.916 51.39-123.628 67.444-49.706 17.080-102.76 25.742-157.694 25.742zM512 896v0c282.77 0 512-186.25 512-416 0-229.752-229.23-416-512-416-27.156 0-53.81 1.734-79.824 5.044-109.978-109.978-241.25-129.7-368.176-132.596v26.916c68.536 33.578 128 94.74 128 164.636 0 9.754-0.758 19.33-2.164 28.696-115.796 76.264-189.836 192.754-189.836 323.304 0 229.75 229.23 416 512 416z" />
<glyph unicode="&#xe96f;" glyph-name="bubbles3" horiz-adv-x="1152" d="M1088 58.834c0-45.5 26.028-84.908 64-104.184v-15.938c-10.626-1.454-21.472-2.224-32.5-2.224-68.008 0-129.348 28.528-172.722 74.264-26.222-6.982-54.002-10.752-82.778-10.752-159.058 0-288 114.616-288 256s128.942 256 288 256c159.058 0 288-114.616 288-256 0-55.348-19.764-106.592-53.356-148.466-6.824-14.824-10.644-31.312-10.644-48.7zM230.678 738.814c-66.214-53.798-102.678-122.984-102.678-194.814 0-40.298 11.188-79.378 33.252-116.15 22.752-37.92 56.982-72.586 98.988-100.252 30.356-19.992 50.78-51.948 56.176-87.894 1.8-11.984 2.928-24.088 3.37-36.124 7.47 6.194 14.75 12.846 21.88 19.976 24.154 24.152 56.78 37.49 90.502 37.49 5.368 0 10.762-0.336 16.156-1.024 20.948-2.662 42.344-4.016 63.594-4.020v-128c-27.128 0.002-53.754 1.738-79.742 5.042-109.978-109.978-241.25-129.7-368.176-132.596v26.916c68.536 33.578 128 94.74 128 164.636 0 9.754-0.758 19.33-2.164 28.696-115.796 76.264-189.836 192.754-189.836 323.304 0 229.75 229.23 416 512 416 278.458 0 504.992-180.614 511.836-405.52-41.096 18.316-85.84 29.422-132.262 32.578-11.53 56.068-45.402 108.816-98.252 151.756-35.322 28.698-76.916 51.39-123.628 67.444-49.706 17.080-102.76 25.742-157.694 25.742-54.932 0-107.988-8.662-157.694-25.742-46.712-16.054-88.306-38.744-123.628-67.444z" />
<glyph unicode="&#xe970;" d="M341.333 490.662c-23.564 0-42.667-19.102-42.667-42.667s19.103-42.667 42.667-42.667h408.99l-170.662-170.658 60.339-60.343 243.102 243.102c1.583 1.545 3.046 3.209 4.378 4.975 1.724 2.295 3.183 4.723 4.386 7.245 2.291 4.804 3.712 10.108 4.053 15.701 0.141 2.287 0.098 4.587-0.124 6.869-0.269 2.731-0.798 5.389-1.557 7.945-1.954 6.592-5.53 12.804-10.735 18.010l-243.503 243.503-60.339-60.34 170.675-170.675h-409.003z" />
<glyph unicode="&#xe971;" d="M128 106.667c0-23.565 19.103-42.667 42.667-42.667h682.667c23.565 0 42.667 19.102 42.667 42.667s-19.102 42.667-42.667 42.667h-682.667c-23.564 0-42.667-19.102-42.667-42.667z" />
<glyph unicode="&#xe972;" d="M554.667 277.333c0-23.565-19.102-42.667-42.667-42.667s-42.667 19.102-42.667 42.667v298.667h-213.333l256 256 256-256h-213.333v-298.667z" />
<glyph unicode="&#xe973;" d="M128 106.667c0-23.565 19.103-42.667 42.667-42.667h682.667c23.565 0 42.667 19.102 42.667 42.667s-19.102 42.667-42.667 42.667h-682.667c-23.564 0-42.667-19.102-42.667-42.667z" />
<glyph unicode="&#xe974;" d="M554.667 277.333c0-23.565-19.102-42.667-42.667-42.667s-42.667 19.102-42.667 42.667v408.987l-170.66-170.659-60.34 60.339 243.1 243.101c1.545 1.583 3.209 3.046 4.975 4.375 2.295 1.724 4.723 3.186 7.245 4.387 4.804 2.293 10.108 3.713 15.701 4.055 2.287 0.142 4.587 0.1 6.869-0.126 2.731-0.268 5.389-0.795 7.945-1.554 6.592-1.954 12.804-5.532 18.010-10.735l243.503-243.503-60.339-60.339-170.675 170.673v-409z" />
<glyph unicode="&#xe975;" d="M213.687 448c0 164.949 134.271 298.667 299.905 298.667 83.307 0 158.613-33.772 213.009-88.423 5.222-5.25 18.295-19.38 19.827-21.033l60.651 60.403c-1.882 2.026-14.272 15.326-19.622 20.701-69.824 70.156-166.78 113.685-273.865 113.685-212.957 0-385.591-171.923-385.591-384 0-212.079 172.634-384 385.591-384 142.775 0 267.371 77.303 333.978 191.97 11.849 20.395 4.847 46.498-15.633 58.295s-46.69 4.83-58.539-15.569c-51.921-89.382-148.855-149.363-259.806-149.363-165.634 0-299.905 133.717-299.905 298.667z" />
<glyph unicode="&#xe976;" d="M938.667 490.667h-341.333l341.333 341.333v-341.333z" />
<glyph unicode="&#xe977;" d="M213.333 448c0 164.949 133.718 298.667 298.667 298.667 82.965 0 157.961-33.772 212.13-88.423 14.605-14.735 38.404-41.707 59.298-65.93 4.949-5.738 9.677-11.251 13.999-16.314 13.239 0 34.573 0 55.906 0v65.905c-1.728 2.011-3.494 4.063-5.291 6.144-20.655 23.945-46.306 53.113-63.305 70.265-69.534 70.156-166.093 113.685-272.738 113.685-212.077 0-384-171.923-384-384 0-212.079 171.923-384 384-384 142.187 0 266.27 77.303 332.599 191.97 11.802 20.395 4.83 46.498-15.565 58.295-20.399 11.797-46.498 4.83-58.3-15.569-51.703-89.382-148.241-149.363-258.735-149.363-164.949 0-298.667 133.717-298.667 298.667z" />
<glyph unicode="&#xe978;" d="M938.667 832v-298.667c0-23.565-19.102-42.667-42.667-42.667h-298.667v85.333h256v256h85.333z" />
<glyph unicode="&#xe979;" d="M810.667 448c0 164.949-133.717 298.667-298.667 298.667-82.965 0-157.963-33.772-212.132-88.423-5.204-5.25-18.223-19.38-19.746-21.033l-60.403 60.403c1.877 2.026 14.214 15.326 19.542 20.701 69.536 70.156 166.093 113.685 272.739 113.685 212.079 0 384-171.923 384-384 0-212.079-171.921-384-384-384-142.189 0-266.272 77.303-332.602 191.97-11.799 20.395-4.829 46.498 15.568 58.295s46.498 4.83 58.297-15.569c51.706-89.382 148.241-149.363 258.737-149.363 164.949 0 298.667 133.717 298.667 298.667z" />
<glyph unicode="&#xe97a;" d="M85.333 490.667h341.333l-341.333 341.333v-341.333z" />
<glyph unicode="&#xe97b;" d="M810.667 448c0 164.949-133.717 298.667-298.667 298.667-82.965 0-157.962-33.772-212.131-88.423-14.605-14.735-38.403-41.707-59.297-65.93-4.95-5.738-9.676-11.251-13.998-16.314-13.241 0-34.575 0-55.908 0v65.905c1.728 2.011 3.494 4.063 5.289 6.144 20.655 23.945 46.306 53.113 63.306 70.265 69.536 70.156 166.093 113.685 272.738 113.685 212.079 0 384-171.923 384-384 0-212.079-171.921-384-384-384-142.188 0-266.271 77.303-332.602 191.97-11.799 20.395-4.829 46.498 15.568 58.295s46.498 4.83 58.297-15.569c51.706-89.382 148.241-149.363 258.737-149.363 164.949 0 298.667 133.717 298.667 298.667z" />
<glyph unicode="&#xe97c;" d="M85.333 832v-298.667c0-23.565 19.103-42.667 42.667-42.667h298.667v85.333h-256v256h-85.333z" />
<glyph unicode="&#xe97d;" d="M938.667 448c0-235.639-191.027-426.667-426.667-426.667-235.642 0-426.667 191.027-426.667 426.667 0 235.642 191.025 426.667 426.667 426.667 235.639 0 426.667-191.025 426.667-426.667z" />
<glyph unicode="&#xe97e;" d="M554.667 618.667c0 23.564-19.102 42.667-42.667 42.667s-42.667-19.103-42.667-42.667v-170.667h-170.667l213.333-213.333 213.333 213.333h-170.667v170.667z" />
<glyph unicode="&#xe97f;" d="M512 789.333c-188.513 0-341.333-152.82-341.333-341.333s152.82-341.333 341.333-341.333c188.514 0 341.333 152.819 341.333 341.333s-152.819 341.333-341.333 341.333zM85.333 448c0 235.642 191.025 426.667 426.667 426.667 235.639 0 426.667-191.025 426.667-426.667 0-235.639-191.027-426.667-426.667-426.667-235.642 0-426.667 191.027-426.667 426.667z" />
<glyph unicode="&#xe980;" glyph-name="spinner7" d="M416 32c0 53.019 42.981 96 96 96s96-42.981 96-96c0-53.019-42.981-96-96-96s-96 42.981-96 96zM0 448c0 53.019 42.981 96 96 96s96-42.981 96-96c0-53.019-42.981-96-96-96s-96 42.981-96 96zM832 448c0 53.019 42.981 96 96 96s96-42.981 96-96c0-53.019-42.981-96-96-96s-96 42.981-96 96zM121.844 742.156c0 53.019 42.981 96 96 96s96-42.981 96-96c0-53.019-42.981-96-96-96s-96 42.981-96 96zM710.156 153.844c0 53.019 42.981 96 96 96s96-42.981 96-96c0-53.019-42.981-96-96-96s-96 42.981-96 96zM121.844 153.844c0 53.019 42.981 96 96 96s96-42.981 96-96c0-53.019-42.981-96-96-96s-96 42.981-96 96zM710.156 742.156c0 53.019 42.981 96 96 96s96-42.981 96-96c0-53.019-42.981-96-96-96s-96 42.981-96 96z" />
<glyph unicode="&#xe981;" glyph-name="spinner8" d="M512-64c-136.76 0-265.334 53.258-362.040 149.96-96.702 96.706-149.96 225.28-149.96 362.040 0 96.838 27.182 191.134 78.606 272.692 50 79.296 120.664 143.372 204.356 185.3l43-85.832c-68.038-34.084-125.492-86.186-166.15-150.67-41.746-66.208-63.812-142.798-63.812-221.49 0-229.382 186.618-416 416-416s416 186.618 416 416c0 78.692-22.066 155.282-63.81 221.49-40.66 64.484-98.114 116.584-166.15 150.67l43 85.832c83.692-41.928 154.358-106.004 204.356-185.3 51.422-81.558 78.604-175.854 78.604-272.692 0-136.76-53.258-265.334-149.96-362.040-96.706-96.702-225.28-149.96-362.040-149.96z" />
<glyph unicode="&#xe982;" glyph-name="spinner9" d="M512 960c-278.748 0-505.458-222.762-511.848-499.974 5.92 241.864 189.832 435.974 415.848 435.974 229.75 0 416-200.576 416-448 0-53.020 42.98-96 96-96s96 42.98 96 96c0 282.77-229.23 512-512 512zM512-64c278.748 0 505.458 222.762 511.848 499.974-5.92-241.864-189.832-435.974-415.848-435.974-229.75 0-416 200.576-416 448 0 53.020-42.98 96-96 96s-96-42.98-96-96c0-282.77 229.23-512 512-512z" />
<glyph unicode="&#xe983;" d="M554.667 618.667c0 23.564-19.102 42.667-42.667 42.667s-42.667-19.103-42.667-42.667v-238.332l-128.004 128.004-60.34-60.339 200.837-200.836c4.919-4.919 10.743-8.388 16.934-10.402 3.042-0.994 6.234-1.651 9.536-1.937 2.155-0.188 4.322-0.209 6.477-0.068 4.958 0.316 9.685 1.481 14.037 3.349 3.746 1.604 7.309 3.772 10.56 6.498 1.075 0.9 2.103 1.852 3.085 2.85l200.546 200.546-60.339 60.339-127.996-127.996v238.323z" />
<glyph unicode="&#xe984;" d="M554.667 832c0 23.564-19.102 42.667-42.667 42.667s-42.667-19.103-42.667-42.667v-512h85.333v512z" />
<glyph unicode="&#xe985;" d="M512 21.333l-298.667 298.667h597.333l-298.667-298.667z" />
<glyph unicode="&#xe986;" d="M938.667 448c0-235.639-191.027-426.667-426.667-426.667-235.642 0-426.667 191.027-426.667 426.667 0 235.642 191.025 426.667 426.667 426.667 235.639 0 426.667-191.025 426.667-426.667z" />
<glyph unicode="&#xe987;" d="M520.836 396.497l149.333 149.333c16.661 16.663 16.661 43.677 0 60.34s-43.678 16.662-60.339 0l-149.333-149.334-119.164 119.164v-298.667h298.667l-119.164 119.164z" />
<glyph unicode="&#xe988;" d="M512 789.333c-188.513 0-341.333-152.82-341.333-341.333s152.82-341.333 341.333-341.333c188.514 0 341.333 152.819 341.333 341.333s-152.819 341.333-341.333 341.333zM85.333 448c0 235.642 191.025 426.667 426.667 426.667 235.639 0 426.667-191.025 426.667-426.667 0-235.639-191.027-426.667-426.667-426.667-235.642 0-426.667 191.027-426.667 426.667z" />
<glyph unicode="&#xe989;" d="M670.17 545.83c16.661 16.663 16.661 43.677 0 60.34s-43.678 16.662-60.339 0l-183.164-183.164v195.661h-85.333v-298.667c0-23.565 19.103-42.667 42.667-42.667h298.667v85.333h-195.661l183.164 183.163z" />
<glyph unicode="&#xe98a;" d="M840.841 716.497c16.661 16.663 16.661 43.677 0 60.34s-43.678 16.662-60.339 0l-426.668-426.667 60.34-60.339 426.668 426.666z" />
<glyph unicode="&#xe98b;" d="M170.667 533.333v-426.667h426.667c-429.282 429.282-37.602 37.598-426.667 426.667z" />
<glyph unicode="&#xe98c;" d="M121.937 667.396c0 94.257 76.41 170.667 170.667 170.667h426.666c94.255 0 170.667-76.41 170.667-170.667v-426.666c0-94.255-76.412-170.667-170.667-170.667h-426.666c-94.257 0-170.667 76.412-170.667 170.667v426.666z" />
<glyph unicode="&#xe98d;" d="M520.836 396.497l149.333 149.333c16.661 16.663 16.661 43.677 0 60.34s-43.678 16.662-60.339 0l-149.333-149.334-119.164 119.164v-298.667h298.667l-119.164 119.164z" />
<glyph unicode="&#xe98e;" d="M128 661.333c0 94.257 76.41 170.667 170.667 170.667h426.667c94.255 0 170.667-76.41 170.667-170.667v-426.667c0-94.255-76.412-170.667-170.667-170.667h-426.667c-94.257 0-170.667 76.412-170.667 170.667v426.667zM298.667 746.667c-47.128 0-85.333-38.205-85.333-85.333v-426.667c0-47.13 38.205-85.333 85.333-85.333h426.667c47.13 0 85.333 38.204 85.333 85.333v426.667c0 47.128-38.204 85.333-85.333 85.333h-426.667z" />
<glyph unicode="&#xe98f;" d="M670.17 545.83c16.661 16.663 16.661 43.677 0 60.34s-43.678 16.662-60.339 0l-183.164-183.164v195.661h-85.333v-298.667c0-23.565 19.103-42.667 42.667-42.667h298.667v85.333h-195.661l183.164 183.163z" />
<glyph unicode="&#xe990;" d="M840.836 716.497c16.661 16.663 16.661 43.677 0 60.34s-43.678 16.662-60.339 0l-524.497-524.497v-60.339h60.34l524.497 524.497z" />
<glyph unicode="&#xe991;" d="M256 576v-384h384v-85.333h-426.667c-23.564 0-42.667 19.102-42.667 42.667v426.667h85.333z" />
<glyph unicode="&#xe992;" d="M85.333 448c0-235.639 191.025-426.667 426.667-426.667 235.639 0 426.667 191.027 426.667 426.667 0 235.642-191.027 426.667-426.667 426.667-235.642 0-426.667-191.025-426.667-426.667z" />
<glyph unicode="&#xe993;" glyph-name="equalizer2" d="M896 512h16c26.4 0 48 21.6 48 48v160c0 26.4-21.6 48-48 48h-16v192h-128v-192h-16c-26.4 0-48-21.6-48-48v-160c0-26.4 21.6-48 48-48h16v-576h128v576zM768 704h128v-128h-128v128zM592 128c26.4 0 48 21.6 48 48v160c0 26.4-21.6 48-48 48h-16v576h-128v-576h-16c-26.4 0-48-21.6-48-48v-160c0-26.4 21.6-48 48-48h16v-192h128v192h16zM448 320h128v-128h-128v128zM272 512c26.4 0 48 21.6 48 48v160c0 26.4-21.6 48-48 48h-16v192h-128v-192h-16c-26.4 0-48-21.6-48-48v-160c0-26.4 21.6-48 48-48h16v-576h128v576h16zM128 704h128v-128h-128v128z" />
<glyph unicode="&#xe994;" glyph-name="cog" d="M933.79 349.75c-53.726 93.054-21.416 212.304 72.152 266.488l-100.626 174.292c-28.75-16.854-62.176-26.518-97.846-26.518-107.536 0-194.708 87.746-194.708 195.99h-201.258c0.266-33.41-8.074-67.282-25.958-98.252-53.724-93.056-173.156-124.702-266.862-70.758l-100.624-174.292c28.97-16.472 54.050-40.588 71.886-71.478 53.638-92.908 21.512-211.92-71.708-266.224l100.626-174.292c28.65 16.696 61.916 26.254 97.4 26.254 107.196 0 194.144-87.192 194.7-194.958h201.254c-0.086 33.074 8.272 66.57 25.966 97.218 53.636 92.906 172.776 124.594 266.414 71.012l100.626 174.29c-28.78 16.466-53.692 40.498-71.434 71.228zM512 240.668c-114.508 0-207.336 92.824-207.336 207.334 0 114.508 92.826 207.334 207.336 207.334 114.508 0 207.332-92.826 207.332-207.334-0.002-114.51-92.824-207.334-207.332-207.334z" />
<glyph unicode="&#xe995;" glyph-name="cogs" d="M363.722 237.948l41.298 57.816-45.254 45.256-57.818-41.296c-10.722 5.994-22.204 10.774-34.266 14.192l-11.682 70.084h-64l-11.68-70.086c-12.062-3.418-23.544-8.198-34.266-14.192l-57.818 41.298-45.256-45.256 41.298-57.816c-5.994-10.72-10.774-22.206-14.192-34.266l-70.086-11.682v-64l70.086-11.682c3.418-12.060 8.198-23.544 14.192-34.266l-41.298-57.816 45.254-45.256 57.818 41.296c10.722-5.994 22.204-10.774 34.266-14.192l11.682-70.084h64l11.68 70.086c12.062 3.418 23.544 8.198 34.266 14.192l57.818-41.296 45.254 45.256-41.298 57.816c5.994 10.72 10.774 22.206 14.192 34.266l70.088 11.68v64l-70.086 11.682c-3.418 12.060-8.198 23.544-14.192 34.266zM224 96c-35.348 0-64 28.654-64 64s28.652 64 64 64 64-28.654 64-64-28.652-64-64-64zM1024 576v64l-67.382 12.25c-1.242 8.046-2.832 15.978-4.724 23.79l57.558 37.1-24.492 59.128-66.944-14.468c-4.214 6.91-8.726 13.62-13.492 20.13l39.006 56.342-45.256 45.254-56.342-39.006c-6.512 4.766-13.22 9.276-20.13 13.494l14.468 66.944-59.128 24.494-37.1-57.558c-7.812 1.892-15.744 3.482-23.79 4.724l-12.252 67.382h-64l-12.252-67.382c-8.046-1.242-15.976-2.832-23.79-4.724l-37.098 57.558-59.128-24.492 14.468-66.944c-6.91-4.216-13.62-8.728-20.13-13.494l-56.342 39.006-45.254-45.254 39.006-56.342c-4.766-6.51-9.278-13.22-13.494-20.13l-66.944 14.468-24.492-59.128 57.558-37.1c-1.892-7.812-3.482-15.742-4.724-23.79l-67.384-12.252v-64l67.382-12.25c1.242-8.046 2.832-15.978 4.724-23.79l-57.558-37.1 24.492-59.128 66.944 14.468c4.216-6.91 8.728-13.618 13.494-20.13l-39.006-56.342 45.254-45.256 56.342 39.006c6.51-4.766 13.22-9.276 20.13-13.492l-14.468-66.944 59.128-24.492 37.102 57.558c7.81-1.892 15.742-3.482 23.788-4.724l12.252-67.384h64l12.252 67.382c8.044 1.242 15.976 2.832 23.79 4.724l37.1-57.558 59.128 24.492-14.468 66.944c6.91 4.216 13.62 8.726 20.13 13.492l56.342-39.006 45.256 45.256-39.006 56.342c4.766 6.512 9.276 13.22 13.492 20.13l66.944-14.468 24.492 59.13-57.558 37.1c1.892 7.812 3.482 15.742 4.724 23.79l67.382 12.25zM672 468.8c-76.878 0-139.2 62.322-139.2 139.2s62.32 139.2 139.2 139.2 139.2-62.322 139.2-139.2c0-76.878-62.32-139.2-139.2-139.2z" />
<glyph unicode="&#xe996;" d="M503.164 396.497l-149.334 149.333c-16.662 16.663-16.662 43.677 0 60.34s43.677 16.662 60.34 0l149.333-149.334 119.164 119.164v-298.667h-298.667l119.164 119.164z" />
<glyph unicode="&#xe997;" d="M512 789.333c188.514 0 341.333-152.82 341.333-341.333s-152.819-341.333-341.333-341.333c-188.513 0-341.333 152.819-341.333 341.333s152.82 341.333 341.333 341.333zM938.667 448c0 235.642-191.027 426.667-426.667 426.667-235.642 0-426.667-191.025-426.667-426.667 0-235.639 191.025-426.667 426.667-426.667 235.639 0 426.667 191.027 426.667 426.667z" />
<glyph unicode="&#xe998;" d="M353.83 545.83c-16.662 16.663-16.662 43.677 0 60.34s43.677 16.662 60.34 0l183.163-183.164v195.661h85.333v-298.667c0-23.565-19.102-42.667-42.667-42.667h-298.667v85.333h195.661l-183.164 183.163z" />
<glyph unicode="&#xe999;" d="M853.333 533.333v-426.667h-426.667c429.282 429.282 37.602 37.598 426.667 426.667z" />
<glyph unicode="&#xe99a;" d="M183.163 716.497c-16.662 16.663-16.662 43.677 0 60.34s43.677 16.662 60.34 0l426.666-426.667-60.339-60.339-426.667 426.666z" />
<glyph unicode="&#xe99b;" d="M896 661.333c0 94.257-76.412 170.667-170.667 170.667h-426.667c-94.257 0-170.667-76.41-170.667-170.667v-426.667c0-94.255 76.41-170.667 170.667-170.667h426.667c94.255 0 170.667 76.412 170.667 170.667v426.667z" />
<glyph unicode="&#xe99c;" d="M503.164 396.497l-149.334 149.333c-16.662 16.663-16.662 43.677 0 60.34s43.677 16.662 60.34 0l149.333-149.334 119.164 119.164v-298.667h-298.667l119.164 119.164z" />
<glyph unicode="&#xe99d;" d="M896 661.333c0 94.257-76.412 170.667-170.667 170.667h-426.667c-94.257 0-170.667-76.41-170.667-170.667v-426.667c0-94.255 76.41-170.667 170.667-170.667h426.667c94.255 0 170.667 76.412 170.667 170.667v426.667zM725.333 746.667c47.13 0 85.333-38.205 85.333-85.333v-426.667c0-47.13-38.204-85.333-85.333-85.333h-426.667c-47.128 0-85.333 38.204-85.333 85.333v426.667c0 47.128 38.205 85.333 85.333 85.333h426.667z" />
<glyph unicode="&#xe99e;" d="M353.83 545.83c-16.662 16.663-16.662 43.677 0 60.34s43.677 16.662 60.34 0l183.163-183.164v195.661h85.333v-298.667c0-23.565-19.102-42.667-42.667-42.667h-298.667v85.333h195.661l-183.164 183.163z" />
<glyph unicode="&#xe99f;" d="M768 576v-384h-384v-85.333h426.667c23.565 0 42.667 19.102 42.667 42.667v426.667h-85.333z" />
<glyph unicode="&#xe9a0;" d="M183.163 716.497c-16.662 16.663-16.662 43.677 0 60.34s43.677 16.662 60.34 0l524.497-524.497v-60.339h-60.339l-524.497 524.497z" />
<glyph unicode="&#xe9a1;" d="M554.667 661.333c0 23.564-19.102 42.667-42.667 42.667s-42.667-19.103-42.667-42.667v-213.333h85.333v213.333z" />
<glyph unicode="&#xe9a2;" d="M256 448l256-256 256 256c-329.348 0-209.178 0-512 0z" />
<glyph unicode="&#xe9a3;" d="M298.673 508.343l213.335-213.333 213.329 213.333 60.343-60.339-243.503-243.503c-8.004-8.004-18.854-12.497-30.17-12.497-11.319 0-22.17 4.493-30.174 12.497l-243.501 243.503 60.34 60.339z" />
<glyph unicode="&#xe9a4;" d="M554.667 661.333c0 23.564-19.102 42.667-42.667 42.667s-42.667-19.103-42.667-42.667v-323.657l42.675-42.671 42.658 42.658v323.669z" />
<glyph unicode="&#xe9a5;" d="M128 661.333c0 94.257 76.41 170.667 170.667 170.667h426.667c94.255 0 170.667-76.41 170.667-170.667v-426.667c0-94.255-76.412-170.667-170.667-170.667h-426.667c-94.257 0-170.667 76.412-170.667 170.667v426.667z" />
<glyph unicode="&#xe9a6;" glyph-name="meter" d="M512 896c282.77 0 512-229.23 512-512 0-192.792-106.576-360.666-264.008-448h-495.984c-157.432 87.334-264.008 255.208-264.008 448 0 282.77 229.23 512 512 512zM801.914 94.086c77.438 77.44 120.086 180.398 120.086 289.914h-90v64h85.038c-7.014 44.998-21.39 88.146-42.564 128h-106.474v64h64.284c-9.438 11.762-19.552 23.096-30.37 33.914-46.222 46.22-101.54 80.038-161.914 99.798v-69.712h-64v85.040c-20.982 3.268-42.36 4.96-64 4.96s-43.018-1.69-64-4.96v-85.040h-64v69.712c-60.372-19.76-115.692-53.576-161.914-99.798-10.818-10.818-20.932-22.152-30.37-33.914h64.284v-64h-106.476c-21.174-39.854-35.552-83.002-42.564-128h85.040v-64h-90c0-109.516 42.648-212.474 120.086-289.914 10.71-10.71 21.924-20.728 33.56-30.086h192.354l36.572 512h54.856l36.572-512h192.354c11.636 9.358 22.852 19.378 33.56 30.086z" />
<glyph unicode="&#xe9a7;" glyph-name="meter2" d="M512 960c-282.77 0-512-229.23-512-512s229.23-512 512-512 512 229.23 512 512-229.23 512-512 512zM302.836 125.848c11.106 30.632 17.164 63.688 17.164 98.152 0 124.35-78.81 230.292-189.208 270.606 10.21 84.924 48.254 163.498 109.678 224.924 72.53 72.526 168.96 112.47 271.53 112.47s199-39.944 271.53-112.47c61.428-61.426 99.468-140 109.682-224.924-110.402-40.314-189.212-146.256-189.212-270.606 0-34.468 6.060-67.52 17.166-98.15-61.706-40.242-133.77-61.85-209.166-61.85-75.394 0-147.458 21.608-209.164 61.848zM551.754 319.004c13.878-3.494 24.246-16.080 24.246-31.004v-64c0-17.6-14.4-32-32-32h-64c-17.6 0-32 14.4-32 32v64c0 14.924 10.368 27.51 24.246 31.004l23.754 448.996h32l23.754-448.996z" />
<glyph unicode="&#xe9a8;" glyph-name="hammer2" d="M1010.174 44.25l-548.634 499.458 25.534 25.598c20.894 20.954 32.188 48.030 33.918 75.61 1.002 0.45 2.002 0.912 2.958 1.442l102.99 64.402c13.934 16.392 12.916 42.268-2.284 57.502l-179.12 179.608c-15.19 15.234-40.998 16.262-57.344 2.284l-64.236-103.268c-0.526-0.966-0.99-1.966-1.44-2.974-27.502-1.736-54.5-13.056-75.398-34.006l-97.428-97.702c-20.898-20.956-32.184-48.026-33.918-75.604-1.004-0.45-2.004-0.916-2.964-1.446l-102.986-64.406c-13.942-16.39-12.916-42.264 2.276-57.496l179.12-179.604c15.194-15.238 40.996-16.262 57.35-2.286l64.228 103.27c0.528 0.958 0.988 1.96 1.442 2.966 27.502 1.738 54.504 13.050 75.398 34.004l28.292 28.372 498.122-550.114c14.436-15.944 36.7-18.518 49.474-5.712l50.356 50.488c12.764 12.808 10.196 35.132-5.706 49.614z" />
<glyph unicode="&#xe9a9;" d="M554.667 618.667c0 23.564-19.102 42.667-42.667 42.667s-42.667-19.103-42.667-42.667v-170.667h-170.667l213.333-213.333 213.333 213.333h-170.667v170.667z" />
<glyph unicode="&#xe9aa;" d="M128 661.333c0 94.257 76.41 170.667 170.667 170.667h426.667c94.255 0 170.667-76.41 170.667-170.667v-426.667c0-94.255-76.412-170.667-170.667-170.667h-426.667c-94.257 0-170.667 76.412-170.667 170.667v426.667zM298.667 746.667c-47.128 0-85.333-38.205-85.333-85.333v-426.667c0-47.13 38.205-85.333 85.333-85.333h426.667c47.13 0 85.333 38.204 85.333 85.333v426.667c0 47.128-38.204 85.333-85.333 85.333h-426.667z" />
<glyph unicode="&#xe9ab;" d="M554.667 618.667c0 23.564-19.102 42.667-42.667 42.667s-42.667-19.103-42.667-42.667v-238.332l-128.004 128.004-60.34-60.339 200.837-200.836c4.919-4.919 10.743-8.388 16.934-10.402 3.042-0.994 6.234-1.651 9.536-1.937 2.155-0.188 4.322-0.209 6.477-0.068 4.958 0.316 9.685 1.481 14.037 3.349 3.746 1.604 7.309 3.772 10.56 6.498 1.075 0.9 2.103 1.852 3.085 2.85l200.546 200.546-60.339 60.339-127.996-127.996v238.323z" />
<glyph unicode="&#xe9ac;" d="M938.667 320l-213.333-213.333-213.333 213.333h426.667zM512 618.669l-213.333 213.331-213.333-213.331c461.197 0 18.243 0 426.667 0z" />
<glyph unicode="&#xe9ad;" d="M725.333 832c23.565 0 42.667-19.103 42.667-42.667v-469.333h-85.333v469.333c0 23.564 19.102 42.667 42.667 42.667zM341.333 618.668v-511.997c0-23.565-19.103-42.667-42.667-42.667s-42.667 19.102-42.667 42.667v511.997h85.333z" />
<glyph unicode="&#xe9ae;" d="M768 789.333c0 23.564-19.102 42.667-42.667 42.667s-42.667-19.103-42.667-42.667v-536.998l42.662-42.662 42.671 42.671v536.99zM341.333 643.656l-42.671 42.671-42.663-42.663v-536.998c0-23.565 19.103-42.667 42.667-42.667s42.667 19.102 42.667 42.667v536.989z" />
<glyph unicode="&#xe9af;" d="M328.832 776.837c-16.662 16.662-43.677 16.662-60.34 0l-200.837-200.837 60.34-60.339 170.667 170.666 170.666-170.666 60.339 60.339-200.836 200.837zM755.499 119.164c-16.661-16.661-43.678-16.661-60.339 0l-200.836 200.836 60.339 60.339 170.667-170.667 170.667 170.667 60.339-60.339-200.836-200.836z" />
<glyph unicode="&#xe9b0;" d="M554.667 789.333c0 23.564-19.102 42.667-42.667 42.667s-42.667-19.103-42.667-42.667v-579.665l42.662-42.662 42.671 42.671v579.657z" />
<glyph unicode="&#xe9b1;" d="M255.996 423.010l256-256 256 256 60.339-60.339-286.17-286.17c-16.661-16.666-43.678-16.666-60.339 0l-286.17 286.17 60.34 60.339z" />
<glyph unicode="&#xe9b2;" d="M512 21.333c-235.642 0-426.667 191.027-426.667 426.667 0 235.642 191.025 426.667 426.667 426.667 235.639 0 426.667-191.025 426.667-426.667 0-235.639-191.027-426.667-426.667-426.667z" />
<glyph unicode="&#xe9b3;" d="M682.667 405.333c23.565 0 42.667 19.102 42.667 42.667s-19.102 42.667-42.667 42.667h-170.667v170.667l-213.333-213.333 213.333-213.333v170.667h170.667z" />
<glyph unicode="&#xe9b4;" d="M512 789.333c-188.513 0-341.333-152.82-341.333-341.333s152.82-341.333 341.333-341.333c188.514 0 341.333 152.819 341.333 341.333s-152.819 341.333-341.333 341.333zM85.333 448c0 235.642 191.025 426.667 426.667 426.667 235.639 0 426.667-191.025 426.667-426.667 0-235.639-191.027-426.667-426.667-426.667-235.642 0-426.667 191.027-426.667 426.667z" />
<glyph unicode="&#xe9b5;" d="M682.667 405.333c23.565 0 42.667 19.102 42.667 42.667s-19.102 42.667-42.667 42.667h-238.332l128.004 128.004-60.339 60.34-200.837-200.837c-4.92-4.919-8.387-10.743-10.401-16.934-0.992-3.042-1.652-6.234-1.936-9.536-0.186-2.155-0.209-4.322-0.070-6.477 0.318-4.958 1.483-9.685 3.35-14.037 1.604-3.746 3.77-7.309 6.497-10.56 0.899-1.075 1.85-2.103 2.85-3.085l200.546-200.546 60.339 60.339-127.996 127.996h238.323z" />
<glyph unicode="&#xe9b6;" d="M896 405.333c23.565 0 42.667 19.102 42.667 42.667s-19.102 42.667-42.667 42.667h-512v-85.333h512z" />
<glyph unicode="&#xe9b7;" d="M85.333 448l298.667 298.667v-597.333l-298.667 298.667z" />
<glyph unicode="&#xe9b8;" d="M384.002 874.667l-213.335-213.333 213.335-213.333c0 42.667 0 341.333 0 426.667zM682.667 448l213.333-213.333-213.333-213.333c0 461.197 0 18.244 0 426.667z" />
<glyph unicode="&#xe9b9;" glyph-name="list-numbered" d="M384 128h640v-128h-640zM384 512h640v-128h-640zM384 896h640v-128h-640zM192 960v-256h-64v192h-64v64zM128 434v-50h128v-64h-192v146l128 60v50h-128v64h192v-146zM256 256v-320h-192v64h128v64h-128v64h128v64h-128v64z" />
<glyph unicode="&#xe9ba;" glyph-name="list" d="M0 960h256v-256h-256zM384 896h640v-128h-640zM0 576h256v-256h-256zM384 512h640v-128h-640zM0 192h256v-256h-256zM384 128h640v-128h-640z" />
<glyph unicode="&#xe9bb;" glyph-name="list2" d="M384 896h640v-128h-640v128zM384 512h640v-128h-640v128zM384 128h640v-128h-640v128zM0 832c0 70.692 57.308 128 128 128s128-57.308 128-128c0-70.692-57.308-128-128-128s-128 57.308-128 128zM0 448c0 70.692 57.308 128 128 128s128-57.308 128-128c0-70.692-57.308-128-128-128s-128 57.308-128 128zM0 64c0 70.692 57.308 128 128 128s128-57.308 128-128c0-70.692-57.308-128-128-128s-128 57.308-128 128z" />
<glyph unicode="&#xe9bc;" d="M895.996 661.333c0 23.564-19.102 42.667-42.667 42.667h-469.33v-85.333h469.33c23.565 0 42.667 19.102 42.667 42.667zM682.662 277.333h-511.996c-23.564 0-42.667-19.102-42.667-42.667s19.103-42.667 42.667-42.667h511.996v85.333z" />
<glyph unicode="&#xe9bd;" d="M170.667 192c-23.564 0-42.667 19.102-42.667 42.667s19.103 42.667 42.667 42.667h536.998l42.662-42.662-42.671-42.671h-536.99zM316.344 618.667l-42.671 42.671 42.663 42.663h536.998c23.565 0 42.667-19.103 42.667-42.667s-19.102-42.667-42.667-42.667h-536.989z" />
<glyph unicode="&#xe9be;" d="M183.163 631.178c-16.662 16.662-16.662 43.677 0 60.34l200.837 200.837 60.339-60.34-170.666-170.667 170.666-170.668-60.339-60.339-200.837 200.838zM840.836 204.51c16.661 16.661 16.661 43.678 0 60.339l-200.836 200.836-60.339-60.339 170.667-170.667-170.667-170.667 60.339-60.339 200.836 200.836z" />
<glyph unicode="&#xe9bf;" d="M725.333 405.333c23.565 0 42.667 19.102 42.667 42.667s-19.102 42.667-42.667 42.667h-213.333v-85.333h213.333z" />
<glyph unicode="&#xe9c0;" d="M512 704l-256-256 256-256c0 329.348 0 209.178 0 512z" />
<glyph unicode="&#xe9c1;" d="M725.333 405.333c23.565 0 42.667 19.102 42.667 42.667s-19.102 42.667-42.667 42.667h-323.66l-42.673-42.675 42.66-42.658h323.673z" />
<glyph unicode="&#xe9c2;" d="M572.331 661.327l-213.334-213.335 213.334-213.329-60.343-60.343-243.5 243.503c-8.002 8.004-12.497 18.854-12.497 30.17 0 11.319 4.495 22.17 12.497 30.174l243.5 243.501 60.343-60.34z" />
<glyph unicode="&#xe9c3;" d="M725.333 832c94.255 0 170.667-76.41 170.667-170.667v-426.667c0-94.255-76.412-170.667-170.667-170.667h-426.667c-94.257 0-170.667 76.412-170.667 170.667v426.667c0 94.257 76.41 170.667 170.667 170.667h426.667z" />
<glyph unicode="&#xe9c4;" d="M682.667 405.333c23.565 0 42.667 19.102 42.667 42.667s-19.102 42.667-42.667 42.667h-170.667v170.667l-213.333-213.333 213.333-213.333v170.667h170.667z" />
<glyph unicode="&#xe9c5;" d="M725.333 832c94.255 0 170.667-76.41 170.667-170.667v-426.667c0-94.255-76.412-170.667-170.667-170.667h-426.667c-94.257 0-170.667 76.412-170.667 170.667v426.667c0 94.257 76.41 170.667 170.667 170.667h426.667zM810.667 661.333c0 47.128-38.204 85.333-85.333 85.333h-426.667c-47.128 0-85.333-38.205-85.333-85.333v-426.667c0-47.13 38.205-85.333 85.333-85.333h426.667c47.13 0 85.333 38.204 85.333 85.333v426.667z" />
<glyph unicode="&#xe9c6;" d="M682.667 405.342c23.565 0 42.667 19.102 42.667 42.667s-19.102 42.667-42.667 42.667h-238.332l128.004 128.006-60.339 60.34-200.837-200.838c-4.92-4.919-8.387-10.743-10.401-16.934-0.992-3.042-1.652-6.234-1.936-9.536-0.186-2.155-0.209-4.322-0.070-6.477 0.318-4.958 1.483-9.685 3.35-14.037 1.604-3.746 3.77-7.309 6.497-10.56 0.899-1.075 1.85-2.103 2.85-3.085l200.546-200.546 60.339 60.339-127.996 127.996h238.323z" />
<glyph unicode="&#xe9c7;" d="M853.333 405.333c23.565 0 42.667 19.102 42.667 42.667s-19.102 42.667-42.667 42.667h-579.671l-42.663-42.662 42.671-42.671h579.663z" />
<glyph unicode="&#xe9c8;" d="M487.002 704.014l-256-256.001 256-256-60.34-60.339-286.17 286.17c-16.662 16.661-16.662 43.678 0 60.339l286.17 286.172 60.34-60.34z" />
<glyph unicode="&#xe9c9;" d="M981.333 448l-128-170.667-128 170.667c288.875 0 12.493 0 256 0zM42.667 448l127.996 170.667 128-170.667c-235.625 0 17.070 0-255.996 0z" />
<glyph unicode="&#xe9ca;" d="M512 746.667c-54.473 0-105.416-14.543-149.302-39.93-13.105-7.581-25.586-16.132-37.344-25.558-18.386-14.738-45.239-11.782-59.977 6.604s-11.782 45.239 6.604 59.977c15.098 12.103 31.136 23.093 47.989 32.842 56.525 32.698 122.16 51.398 192.031 51.398 212.079 0 384-171.923 384-384h-85.333c0 164.949-133.717 298.667-298.667 298.667zM128 448h85.333c0-164.949 133.718-298.667 298.667-298.667 70.673 0 135.505 24.495 186.645 65.489 18.385 14.737 45.239 11.78 59.977-6.605 14.741-18.385 11.785-45.239-6.601-59.977-65.732-52.693-149.252-84.241-240.021-84.241-212.077 0-384 171.921-384 384z" />
<glyph unicode="&#xe9cb;" d="M896 576c0-94.255-76.412-170.667-170.667-170.667h-341.333v85.333h341.333c47.13 0 85.333 38.204 85.333 85.333v213.333c0 23.564 19.102 42.667 42.667 42.667s42.667-19.103 42.667-42.667v-213.333z" />
<glyph unicode="&#xe9cc;" glyph-name="flag" d="M0 960h128v-1024h-128v1024zM832 316.998c82.624 0 154.57 19.984 192 49.5v512c-37.43-29.518-109.376-49.502-192-49.502s-154.57 19.984-192 49.502v-512c37.43-29.516 109.376-49.5 192-49.5zM608 927.472c-46.906 19.94-115.52 32.528-192 32.528-96.396 0-180.334-19.984-224-49.502v-512c43.666 29.518 127.604 49.502 224 49.502 76.48 0 145.094-12.588 192-32.528v512z" />
<glyph unicode="&#xe9cd;" glyph-name="attachment" d="M665.832 632.952l-64.952 64.922-324.81-324.742c-53.814-53.792-53.814-141.048 0-194.844 53.804-53.792 141.060-53.792 194.874 0l389.772 389.708c89.714 89.662 89.714 235.062 0 324.726-89.666 89.704-235.112 89.704-324.782 0l-409.23-409.178c-0.29-0.304-0.612-0.576-0.876-0.846-125.102-125.096-125.102-327.856 0-452.906 125.054-125.056 327.868-125.056 452.988 0 0.274 0.274 0.516 0.568 0.82 0.876l0.032-0.034 279.332 279.292-64.986 64.92-279.33-279.262c-0.296-0.268-0.564-0.57-0.846-0.844-89.074-89.058-233.98-89.058-323.076 0-89.062 89.042-89.062 233.922 0 322.978 0.304 0.304 0.604 0.582 0.888 0.846l-0.046 0.060 409.28 409.166c53.712 53.738 141.144 53.738 194.886 0 53.712-53.734 53.712-141.148 0-194.84l-389.772-389.7c-17.936-17.922-47.054-17.922-64.972 0-17.894 17.886-17.894 47.032 0 64.92l324.806 324.782z" />
<glyph unicode="&#xe9ce;" glyph-name="eye" d="M512 768c-223.318 0-416.882-130.042-512-320 95.118-189.958 288.682-320 512-320 223.312 0 416.876 130.042 512 320-95.116 189.958-288.688 320-512 320zM764.45 598.296c60.162-38.374 111.142-89.774 149.434-150.296-38.292-60.522-89.274-111.922-149.436-150.296-75.594-48.218-162.89-73.704-252.448-73.704-89.56 0-176.858 25.486-252.452 73.704-60.158 38.372-111.138 89.772-149.432 150.296 38.292 60.524 89.274 111.924 149.434 150.296 3.918 2.5 7.876 4.922 11.86 7.3-9.96-27.328-15.41-56.822-15.41-87.596 0-141.382 114.616-256 256-256 141.382 0 256 114.618 256 256 0 30.774-5.452 60.268-15.408 87.598 3.978-2.378 7.938-4.802 11.858-7.302v0zM512 544c0-53.020-42.98-96-96-96s-96 42.98-96 96 42.98 96 96 96 96-42.982 96-96z" />
<glyph unicode="&#xe9cf;" d="M384 704v-512l-256 256 256 256z" />
<glyph unicode="&#xe9d0;" d="M896 576c0-94.255-76.412-170.667-170.667-170.667h-451.665c-42.834 42.667-42.834 42.667-42.834 42.667s0 0 42.842 42.667h451.657c47.13 0 85.333 38.204 85.333 85.333v213.333c0 23.564 19.102 42.667 42.667 42.667s42.667-19.103 42.667-42.667v-213.333z" />
<glyph unicode="&#xe9d1;" d="M444.335 234.658l-213.334 213.333 213.334 213.335-60.34 60.34-243.503-243.505c-16.662-16.661-16.662-43.678 0-60.339l243.503-243.503 60.34 60.339z" />
<glyph unicode="&#xe9d2;" d="M128 576c0-94.255 76.41-170.667 170.667-170.667h341.333v85.333h-341.333c-47.129 0-85.333 38.204-85.333 85.333v213.333c0 23.564-19.103 42.667-42.667 42.667s-42.667-19.103-42.667-42.667v-213.333z" />
<glyph unicode="&#xe9d3;" d="M640 704v-512l256 256-256 256z" />
<glyph unicode="&#xe9d4;" d="M128 576c0-94.255 76.41-170.667 170.667-170.667h451.665c42.833 42.667 42.833 42.667 42.833 42.667s0 0-42.842 42.667h-451.657c-47.128 0-85.333 38.204-85.333 85.333v213.333c0 23.564-19.103 42.667-42.667 42.667s-42.667-19.103-42.667-42.667v-213.333z" />
<glyph unicode="&#xe9d5;" d="M579.665 234.658l213.333 213.333-213.333 213.335 60.343 60.34 243.503-243.505c16.661-16.661 16.661-43.678 0-60.339l-243.503-243.503-60.343 60.339z" />
<glyph unicode="&#xe9d6;" d="M512 21.333c235.639 0 426.667 191.027 426.667 426.667 0 235.642-191.027 426.667-426.667 426.667-235.642 0-426.667-191.025-426.667-426.667 0-235.639 191.025-426.667 426.667-426.667z" />
<glyph unicode="&#xe9d7;" d="M341.333 405.333c-23.564 0-42.667 19.102-42.667 42.667s19.103 42.667 42.667 42.667h170.667v170.667l213.333-213.333-213.333-213.333v170.667h-170.667z" />
<glyph unicode="&#xe9d8;" d="M512 106.667c-188.513 0-341.333 152.819-341.333 341.333s152.82 341.333 341.333 341.333c188.514 0 341.333-152.82 341.333-341.333s-152.819-341.333-341.333-341.333zM85.333 448c0-235.639 191.025-426.667 426.667-426.667 235.639 0 426.667 191.027 426.667 426.667 0 235.642-191.027 426.667-426.667 426.667-235.642 0-426.667-191.025-426.667-426.667z" />
<glyph unicode="&#xe9d9;" d="M341.333 405.342c-23.564 0-42.667 19.102-42.667 42.667s19.103 42.667 42.667 42.667h238.332l-128.004 128.006 60.339 60.34 200.836-200.838c4.919-4.919 8.388-10.743 10.402-16.934 0.994-3.042 1.651-6.234 1.937-9.536 0.188-2.155 0.209-4.322 0.068-6.477-0.316-4.958-1.481-9.685-3.349-14.037-1.604-3.746-3.772-7.309-6.498-10.56-0.9-1.075-1.852-2.103-2.85-3.085l-200.546-200.546-60.339 60.339 127.996 127.996h-238.323z" />
<glyph unicode="&#xe9da;" d="M128 405.333c-23.564 0-42.667 19.102-42.667 42.667s19.103 42.667 42.667 42.667h512v-85.333h-512z" />
<glyph unicode="&#xe9db;" d="M938.667 448l-298.667 298.667v-597.333l298.667 298.667z" />
<glyph unicode="&#xe9dc;" d="M298.667 405.333c-23.564 0-42.667 19.102-42.667 42.667s19.103 42.667 42.667 42.667h213.333v-85.333h-213.333z" />
<glyph unicode="&#xe9dd;" d="M512 704l256-256-256-256c0 329.348 0 209.178 0 512z" />
<glyph unicode="&#xe9de;" d="M298.667 405.333c-23.564 0-42.667 19.102-42.667 42.667s19.103 42.667 42.667 42.667h323.661l42.671-42.675-42.658-42.658h-323.674z" />
<glyph unicode="&#xe9df;" glyph-name="happy" d="M512-64c282.77 0 512 229.23 512 512s-229.23 512-512 512-512-229.23-512-512 229.23-512 512-512zM512 864c229.75 0 416-186.25 416-416s-186.25-416-416-416-416 186.25-416 416 186.25 416 416 416zM512 361.24c115.95 0 226.23 30.806 320 84.92-14.574-178.438-153.128-318.16-320-318.16-166.868 0-305.422 139.872-320 318.304 93.77-54.112 204.050-85.064 320-85.064zM256 608c0 53.019 28.654 96 64 96s64-42.981 64-96c0-53.019-28.654-96-64-96s-64 42.981-64 96zM640 608c0 53.019 28.654 96 64 96s64-42.981 64-96c0-53.019-28.654-96-64-96s-64 42.981-64 96z" />
<glyph unicode="&#xe9e0;" glyph-name="happy2" d="M512 960c-282.77 0-512-229.23-512-512s229.23-512 512-512 512 229.23 512 512-229.23 512-512 512zM704 704c35.348 0 64-42.98 64-96s-28.652-96-64-96-64 42.98-64 96 28.652 96 64 96zM320 704c35.346 0 64-42.98 64-96s-28.654-96-64-96-64 42.98-64 96 28.654 96 64 96zM512 64c-166.868 0-305.422 139.872-320 318.304 93.77-54.114 204.050-85.064 320-85.064s226.23 30.806 320 84.92c-14.574-178.438-153.128-318.16-320-318.16z" />
<glyph unicode="&#xe9e1;" glyph-name="smile" d="M512-64c282.77 0 512 229.23 512 512s-229.23 512-512 512-512-229.23-512-512 229.23-512 512-512zM512 864c229.75 0 416-186.25 416-416s-186.25-416-416-416-416 186.25-416 416 186.25 416 416 416zM256 640c0 35.346 28.654 64 64 64s64-28.654 64-64c0-35.346-28.654-64-64-64s-64 28.654-64 64zM640 640c0 35.346 28.654 64 64 64s64-28.654 64-64c0-35.346-28.654-64-64-64s-64 28.654-64 64zM704.098 332.74l82.328-49.396c-55.962-93.070-157.916-155.344-274.426-155.344s-218.464 62.274-274.426 155.344l82.328 49.396c39.174-65.148 110.542-108.74 192.098-108.74s152.924 43.592 192.098 108.74z" />
<glyph unicode="&#xe9e2;" d="M451.665 661.327l213.333-213.335-213.333-213.329 60.343-60.343 243.503 243.503c8 8.004 12.497 18.854 12.497 30.17 0 11.319-4.497 22.17-12.497 30.174l-243.503 243.501-60.343-60.34z" />
<glyph unicode="&#xe9e3;" d="M298.667 832c-94.257 0-170.667-76.41-170.667-170.667v-426.667c0-94.255 76.41-170.667 170.667-170.667h426.667c94.255 0 170.667 76.412 170.667 170.667v426.667c0 94.257-76.412 170.667-170.667 170.667h-426.667z" />
<glyph unicode="&#xe9e4;" d="M341.333 405.333c-23.564 0-42.667 19.102-42.667 42.667s19.103 42.667 42.667 42.667h170.667v170.667l213.333-213.333-213.333-213.333v170.667h-170.667z" />
<glyph unicode="&#xe9e5;" d="M128 234.667c0-94.255 76.41-170.667 170.667-170.667h426.667c94.255 0 170.667 76.412 170.667 170.667v426.667c0 94.257-76.412 170.667-170.667 170.667h-426.667c-94.257 0-170.667-76.41-170.667-170.667v-426.667zM298.667 149.333c-47.128 0-85.333 38.204-85.333 85.333v426.667c0 47.128 38.205 85.333 85.333 85.333h426.667c47.13 0 85.333-38.205 85.333-85.333v-426.667c0-47.13-38.204-85.333-85.333-85.333h-426.667z" />
<glyph unicode="&#xe9e6;" d="M341.333 405.333c-23.564 0-42.667 19.102-42.667 42.667s19.103 42.667 42.667 42.667h238.332l-128.004 128.004 60.339 60.34 200.836-200.837c4.919-4.919 8.388-10.743 10.402-16.934 0.994-3.042 1.651-6.234 1.937-9.536 0.188-2.155 0.209-4.322 0.068-6.477-0.316-4.958-1.481-9.685-3.349-14.037-1.604-3.746-3.772-7.309-6.498-10.56-0.9-1.075-1.852-2.103-2.85-3.085l-200.546-200.546-60.339 60.339 127.996 127.996h-238.323z" />
<glyph unicode="&#xe9e7;" d="M128 448c0-23.565 19.103-42.667 42.667-42.667h682.667c23.565 0 42.667 19.102 42.667 42.667s-19.102 42.667-42.667 42.667h-682.667c-23.564 0-42.667-19.102-42.667-42.667z" />
<glyph unicode="&#xe9e8;" d="M536.998 704.004l256-256-256-256 60.343-60.339 286.17 286.17c16.661 16.661 16.661 43.678 0 60.339l-286.17 286.17-60.343-60.34z" />
<glyph unicode="&#xe9e9;" d="M938.667 448c0 235.642-191.027 426.667-426.667 426.667-235.642 0-426.667-191.025-426.667-426.667 0-235.639 191.025-426.667 426.667-426.667 235.639 0 426.667 191.027 426.667 426.667z" />
<glyph unicode="&#xe9ea;" d="M554.667 277.333c0-23.565-19.102-42.667-42.667-42.667s-42.667 19.102-42.667 42.667v170.667h-170.667l213.333 213.333 213.333-213.333h-170.667v-170.667z" />
<glyph unicode="&#xe9eb;" d="M512 106.667c-188.513 0-341.333 152.819-341.333 341.333s152.82 341.333 341.333 341.333c188.514 0 341.333-152.82 341.333-341.333s-152.819-341.333-341.333-341.333zM85.333 448c0-235.639 191.025-426.667 426.667-426.667 235.639 0 426.667 191.027 426.667 426.667 0 235.642-191.027 426.667-426.667 426.667-235.642 0-426.667-191.025-426.667-426.667z" />
<glyph unicode="&#xe9ec;" d="M554.675 277.333c0-23.565-19.102-42.667-42.667-42.667-23.561 0-42.667 19.102-42.667 42.667v238.332l-128.002-128.004-60.34 60.339 200.835 200.837c4.924 4.92 10.743 8.387 16.934 10.401 3.046 0.992 6.238 1.652 9.536 1.936 2.155 0.186 4.322 0.209 6.481 0.070 4.954-0.318 9.681-1.483 14.033-3.35 3.746-1.604 7.309-3.77 10.564-6.497 1.075-0.899 2.103-1.85 3.085-2.85l200.546-200.546-60.339-60.339-128 127.996v-238.323z" />
<glyph unicode="&#xe9ed;" d="M554.667 64c0-23.565-19.102-42.667-42.667-42.667s-42.667 19.102-42.667 42.667v512h85.333v-512z" />
<glyph unicode="&#xe9ee;" d="M512 874.667l-298.667-298.667h597.333l-298.667 298.667z" />
<glyph unicode="&#xe9ef;" d="M938.667 448c0 235.642-191.027 426.667-426.667 426.667-235.642 0-426.667-191.025-426.667-426.667 0-235.639 191.025-426.667 426.667-426.667 235.639 0 426.667 191.027 426.667 426.667z" />
<glyph unicode="&#xe9f0;" d="M520.836 499.503l149.333-149.333c16.661-16.661 16.661-43.678 0-60.339s-43.678-16.661-60.339 0l-149.333 149.333-119.164-119.164v298.667h298.667l-119.164-119.164z" />
<glyph unicode="&#xe9f1;" d="M512 106.667c-188.513 0-341.333 152.819-341.333 341.333s152.82 341.333 341.333 341.333c188.514 0 341.333-152.82 341.333-341.333s-152.819-341.333-341.333-341.333zM85.333 448c0-235.639 191.025-426.667 426.667-426.667 235.639 0 426.667 191.027 426.667 426.667 0 235.642-191.027 426.667-426.667 426.667-235.642 0-426.667-191.025-426.667-426.667z" />
<glyph unicode="&#xe9f2;" glyph-name="shocked2" d="M512 960c-282.77 0-512-229.23-512-512s229.23-512 512-512 512 229.23 512 512-229.23 512-512 512zM320 512c-35.346 0-64 42.98-64 96s28.654 96 64 96 64-42.98 64-96-28.654-96-64-96zM512 128c-70.692 0-128 57.308-128 128s57.308 128 128 128c70.692 0 128-57.308 128-128s-57.308-128-128-128zM704 512c-35.346 0-64 42.98-64 96s28.654 96 64 96 64-42.98 64-96-28.654-96-64-96z" />
<glyph unicode="&#xe9f3;" glyph-name="baffled" d="M512-64c282.77 0 512 229.23 512 512s-229.23 512-512 512-512-229.23-512-512 229.23-512 512-512zM512 864c229.75 0 416-186.25 416-416s-186.25-416-416-416-416 186.25-416 416 186.25 416 416 416zM384 544c0-17.673-14.327-32-32-32s-32 14.327-32 32c0 17.673 14.327 32 32 32s32-14.327 32-32zM352 640c53.020 0 96-42.98 96-96s-42.98-96-96-96-96 42.98-96 96 42.98 96 96 96zM352 704c-88.224 0-160-71.776-160-160s71.776-160 160-160 160 71.776 160 160-71.776 160-160 160v0zM704 544c0-17.673-14.327-32-32-32s-32 14.327-32 32c0 17.673 14.327 32 32 32s32-14.327 32-32zM672 640c53.020 0 96-42.98 96-96s-42.98-96-96-96-96 42.98-96 96 42.98 96 96 96zM672 704c-88.224 0-160-71.776-160-160s71.776-160 160-160 160 71.776 160 160-71.776 160-160 160v0zM384 256h256v-64h-256v64z" />
<glyph unicode="&#xe9f4;" glyph-name="baffled2" d="M384 544c0-17.674-14.326-32-32-32s-32 14.326-32 32 14.326 32 32 32 32-14.326 32-32zM704 544c0-17.674-14.326-32-32-32s-32 14.326-32 32 14.326 32 32 32 32-14.326 32-32zM512 960c-282.77 0-512-229.23-512-512s229.23-512 512-512 512 229.23 512 512-229.23 512-512 512zM256 544c0 53.020 42.98 96 96 96s96-42.98 96-96-42.98-96-96-96-96 42.98-96 96zM640 192h-256v64h256v-64zM672 448c-53.020 0-96 42.98-96 96s42.98 96 96 96 96-42.98 96-96-42.98-96-96-96z" />
<glyph unicode="&#xe9f5;" d="M670.17 350.17c16.661-16.661 16.661-43.678 0-60.339s-43.678-16.661-60.339 0l-183.164 183.164v-195.661h-85.333v298.667c0 23.564 19.103 42.667 42.667 42.667h298.667v-85.333h-195.661l183.164-183.164z" />
<glyph unicode="&#xe9f6;" d="M840.841 179.499c16.661-16.661 16.661-43.678 0-60.339s-43.678-16.661-60.339 0l-426.668 426.668 60.34 60.34 426.668-426.668z" />
<glyph unicode="&#xe9f7;" d="M170.667 362.667v426.667h426.667c-429.282-429.282-37.602-37.6-426.667-426.667z" />
<glyph unicode="&#xe9f8;" d="M128 234.667c0-94.255 76.41-170.667 170.667-170.667h426.667c94.255 0 170.667 76.412 170.667 170.667v426.667c0 94.257-76.412 170.667-170.667 170.667h-426.667c-94.257 0-170.667-76.41-170.667-170.667v-426.667z" />
<glyph unicode="&#xe9f9;" d="M520.836 499.503l149.333-149.333c16.661-16.661 16.661-43.678 0-60.339s-43.678-16.661-60.339 0l-149.333 149.333-119.164-119.164v298.667h298.667l-119.164-119.164z" />
<glyph unicode="&#xe9fa;" d="M128 234.667c0-94.255 76.41-170.667 170.667-170.667h426.667c94.255 0 170.667 76.412 170.667 170.667v426.667c0 94.257-76.412 170.667-170.667 170.667h-426.667c-94.257 0-170.667-76.41-170.667-170.667v-426.667zM298.667 149.333c-47.128 0-85.333 38.204-85.333 85.333v426.667c0 47.128 38.205 85.333 85.333 85.333h426.667c47.13 0 85.333-38.205 85.333-85.333v-426.667c0-47.13-38.204-85.333-85.333-85.333h-426.667z" />
<glyph unicode="&#xe9fb;" d="M670.17 350.17c16.661-16.661 16.661-43.678 0-60.339s-43.678-16.661-60.339 0l-183.164 183.164v-195.661h-85.333v298.667c0 23.564 19.103 42.667 42.667 42.667h298.667v-85.333h-195.661l183.164-183.164z" />
<glyph unicode="&#xe9fc;" d="M840.836 179.503c16.661-16.661 16.661-43.678 0-60.339s-43.678-16.661-60.339 0l-524.497 524.497v60.34h60.34l524.497-524.497z" />
<glyph unicode="&#xe9fd;" d="M256 320v384h384v85.333h-426.667c-23.564 0-42.667-19.102-42.667-42.667v-426.667h85.333z" />
<glyph unicode="&#xe9fe;" d="M85.333 448c0 235.642 191.025 426.667 426.667 426.667 235.639 0 426.667-191.025 426.667-426.667 0-235.639-191.027-426.667-426.667-426.667-235.642 0-426.667 191.027-426.667 426.667z" />
<glyph unicode="&#xe9ff;" d="M503.164 499.503l-149.334-149.333c-16.662-16.661-16.662-43.678 0-60.339s43.677-16.661 60.34 0l149.333 149.333 119.164-119.164v298.667h-298.667l119.164-119.164z" />
<glyph unicode="&#xea00;" d="M512 106.667c188.514 0 341.333 152.819 341.333 341.333s-152.819 341.333-341.333 341.333c-188.513 0-341.333-152.82-341.333-341.333s152.82-341.333 341.333-341.333zM938.667 448c0-235.639-191.027-426.667-426.667-426.667-235.642 0-426.667 191.027-426.667 426.667 0 235.642 191.025 426.667 426.667 426.667 235.639 0 426.667-191.025 426.667-426.667z" />
<glyph unicode="&#xea01;" d="M353.83 350.17c-16.662-16.661-16.662-43.678 0-60.339s43.677-16.661 60.34 0l183.163 183.164v-195.661h85.333v298.667c0 23.564-19.102 42.667-42.667 42.667h-298.667v-85.333h195.661l-183.164-183.164z" />
<glyph unicode="&#xea02;" d="M183.163 179.499c-16.662-16.661-16.662-43.678 0-60.339s43.677-16.661 60.34 0l426.666 426.668-60.339 60.34-426.667-426.668z" />
<glyph unicode="&#xea03;" d="M853.333 362.667v426.667h-426.667c429.282-429.282 37.602-37.6 426.667-426.667z" />
<glyph unicode="&#xea04;" d="M896 234.667c0-94.255-76.412-170.667-170.667-170.667h-426.667c-94.257 0-170.667 76.412-170.667 170.667v426.667c0 94.257 76.41 170.667 170.667 170.667h426.667c94.255 0 170.667-76.41 170.667-170.667v-426.667z" />
<glyph unicode="&#xea05;" glyph-name="point-down" d="M960 544v-160c0-52.934-43.066-96-96-96-17.104 0-33.176 4.494-47.098 12.368-17.076-26.662-46.96-44.368-80.902-44.368-24.564 0-47.004 9.276-64 24.504-16.996-15.228-39.436-24.504-64-24.504-11.214 0-21.986 1.934-32 5.484v-229.484c0-52.934-43.066-96-96-96-52.936 0-96 43.066-96 96v394.676l-176.018-93.836c-14.538-8.398-31.126-12.84-47.982-12.84-52.936 0-96 43.066-96 96 0 26.368 10.472 50.952 29.488 69.226 0.248 0.238 0.496 0.47 0.75 0.7l239.17 218.074h-45.408c-17.674 0-32 14.326-32 32v192c0 17.674 14.326 32 32 32h640c17.674 0 32-14.326 32-32v-192c0-17.674-14.326-32-32-32h-44.222l72.842-145.69c2.224-4.442 3.38-9.342 3.38-14.31zM896 800c0 17.674-14.326 32-32 32s-32-14.326-32-32 14.326-32 32-32 32 14.326 32 32zM896 536.446l-83.778 167.554h-383.824l-290.82-265.168c-6.18-6.066-9.578-14.162-9.578-22.832 0-17.644 14.356-32 32-32 5.458 0 10.612 1.308 15.324 3.894 0.53 0.324 1.070 0.632 1.622 0.926l224 119.416c9.92 5.288 21.884 4.986 31.52-0.8 9.638-5.782 15.534-16.196 15.534-27.436v-448c0-17.644 14.356-32 32-32s32 14.356 32 32v320c0 17.672 14.326 32 32 32s32-14.328 32-32c0-17.644 14.356-32 32-32s32 14.356 32 32c0 17.674 14.326 32 32 32s32-14.326 32-32c0-17.644 14.356-32 32-32s32 14.356 32 32v32c0 17.674 14.326 32 32 32s32-14.326 32-32c0-17.644 14.356-32 32-32s32 14.356 32 32v152.446z" />
<glyph unicode="&#xea06;" glyph-name="point-left" d="M608 0h-160c-52.934 0-96 43.066-96 96 0 17.104 4.494 33.176 12.368 47.098-26.662 17.076-44.368 46.958-44.368 80.902 0 24.564 9.276 47.004 24.504 64-15.228 16.996-24.504 39.436-24.504 64 0 11.214 1.934 21.986 5.484 32h-229.484c-52.934 0-96 43.066-96 96 0 52.936 43.066 96 96 96h394.676l-93.836 176.018c-8.398 14.536-12.84 31.126-12.84 47.982 0 52.936 43.066 96 96 96 26.368 0 50.952-10.472 69.224-29.488 0.238-0.248 0.472-0.496 0.7-0.75l218.076-239.17v45.408c0 17.674 14.326 32 32 32h192c17.674 0 32-14.326 32-32v-640c0-17.674-14.326-32-32-32h-192c-17.674 0-32 14.326-32 32v44.222l-145.69-72.844c-4.442-2.222-9.34-3.378-14.31-3.378zM864 64c17.674 0 32 14.326 32 32s-14.326 32-32 32-32-14.326-32-32 14.326-32 32-32zM600.446 64l167.554 83.778v383.824l-265.168 290.82c-6.066 6.18-14.162 9.578-22.832 9.578-17.644 0-32-14.356-32-32 0-5.458 1.308-10.612 3.894-15.324 0.324-0.53 0.632-1.070 0.926-1.622l119.416-224c5.29-9.92 4.988-21.884-0.798-31.52-5.784-9.638-16.198-15.534-27.438-15.534h-448c-17.644 0-32-14.356-32-32s14.356-32 32-32h320c17.672 0 32-14.326 32-32s-14.328-32-32-32c-17.644 0-32-14.356-32-32s14.356-32 32-32c17.674 0 32-14.326 32-32s-14.326-32-32-32c-17.644 0-32-14.356-32-32s14.356-32 32-32h32c17.674 0 32-14.326 32-32s-14.326-32-32-32c-17.644 0-32-14.356-32-32s14.356-32 32-32h152.446z" />
<glyph unicode="&#xea07;" glyph-name="warning" d="M512 867.226l429.102-855.226h-858.206l429.104 855.226zM512 960c-22.070 0-44.14-14.882-60.884-44.648l-437.074-871.112c-33.486-59.532-5-108.24 63.304-108.24h869.308c68.3 0 96.792 48.708 63.3 108.24h0.002l-437.074 871.112c-16.742 29.766-38.812 44.648-60.882 44.648v0zM576 128c0-35.346-28.654-64-64-64s-64 28.654-64 64c0 35.346 28.654 64 64 64s64-28.654 64-64zM512 256c-35.346 0-64 28.654-64 64v192c0 35.346 28.654 64 64 64s64-28.654 64-64v-192c0-35.346-28.654-64-64-64z" />
<glyph unicode="&#xea08;" d="M503.164 499.503l-149.334-149.333c-16.662-16.661-16.662-43.678 0-60.339s43.677-16.661 60.34 0l149.333 149.333 119.164-119.164v298.667h-298.667l119.164-119.164z" />
<glyph unicode="&#xea09;" d="M896 234.667c0-94.255-76.412-170.667-170.667-170.667h-426.667c-94.257 0-170.667 76.412-170.667 170.667v426.667c0 94.257 76.41 170.667 170.667 170.667h426.667c94.255 0 170.667-76.41 170.667-170.667v-426.667zM725.333 149.333c47.13 0 85.333 38.204 85.333 85.333v426.667c0 47.128-38.204 85.333-85.333 85.333h-426.667c-47.128 0-85.333-38.205-85.333-85.333v-426.667c0-47.13 38.205-85.333 85.333-85.333h426.667z" />
<glyph unicode="&#xea0a;" d="M353.83 350.17c-16.662-16.661-16.662-43.678 0-60.339s43.677-16.661 60.34 0l183.163 183.164v-195.661h85.333v298.667c0 23.564-19.102 42.667-42.667 42.667h-298.667v-85.333h195.661l-183.164-183.164z" />
<glyph unicode="&#xea0b;" d="M183.163 179.503c-16.662-16.661-16.662-43.678 0-60.339s43.677-16.661 60.34 0l524.497 524.497v60.34h-60.339l-524.497-524.497z" />
<glyph unicode="&#xea0c;" d="M768 320v384h-384v85.333h426.667c23.565 0 42.667-19.102 42.667-42.667v-426.667h-85.333z" />
<glyph unicode="&#xea0d;" d="M554.667 234.667c0-23.565-19.102-42.667-42.667-42.667s-42.667 19.102-42.667 42.667v213.333h85.333v-213.333z" />
<glyph unicode="&#xea0e;" d="M256 448l256 256 256-256c-329.348 0-209.178 0-512 0z" />
<glyph unicode="&#xea0f;" d="M554.667 234.671c0-23.565-19.102-42.667-42.667-42.667s-42.667 19.102-42.667 42.667v323.656l42.675 42.673 42.658-42.66v-323.669z" />
<glyph unicode="&#xea10;" d="M298.673 387.661l213.335 213.332 213.329-213.332 60.343 60.339-243.503 243.503c-8.004 8.002-18.854 12.497-30.17 12.497-11.319 0-22.17-4.495-30.174-12.497l-243.501-243.503 60.34-60.339z" />
<glyph unicode="&#xea11;" d="M128 234.667c0-94.255 76.41-170.667 170.667-170.667h426.667c94.255 0 170.667 76.412 170.667 170.667v426.667c0 94.257-76.412 170.667-170.667 170.667h-426.667c-94.257 0-170.667-76.41-170.667-170.667v-426.667z" />
<glyph unicode="&#xea12;" d="M554.667 277.333c0-23.565-19.102-42.667-42.667-42.667s-42.667 19.102-42.667 42.667v170.667h-170.667l213.333 213.333 213.333-213.333h-170.667v-170.667z" />
<glyph unicode="&#xea13;" d="M128 234.667c0-94.255 76.41-170.667 170.667-170.667h426.667c94.255 0 170.667 76.412 170.667 170.667v426.667c0 94.257-76.412 170.667-170.667 170.667h-426.667c-94.257 0-170.667-76.41-170.667-170.667v-426.667zM298.667 149.333c-47.128 0-85.333 38.204-85.333 85.333v426.667c0 47.128 38.205 85.333 85.333 85.333h426.667c47.13 0 85.333-38.205 85.333-85.333v-426.667c0-47.13-38.204-85.333-85.333-85.333h-426.667z" />
<glyph unicode="&#xea14;" d="M554.675 277.333c0-23.565-19.102-42.667-42.667-42.667-23.561 0-42.667 19.102-42.667 42.667v238.332l-128.002-128.004-60.34 60.339 200.835 200.837c4.924 4.92 10.743 8.387 16.934 10.401 3.046 0.992 6.238 1.652 9.536 1.936 2.155 0.186 4.322 0.209 6.481 0.070 4.954-0.318 9.681-1.483 14.033-3.35 3.746-1.604 7.309-3.77 10.564-6.497 1.075-0.899 2.103-1.85 3.085-2.85l200.546-200.546-60.339-60.339-128 127.996v-238.323z" />
<glyph unicode="&#xea15;" d="M554.667 106.671c0-23.565-19.102-42.667-42.667-42.667s-42.667 19.102-42.667 42.667v579.666l42.662 42.663 42.671-42.671v-579.658z" />
<glyph unicode="&#xea16;" d="M255.996 472.994l256 256 256-256 60.339 60.339-286.17 286.17c-16.661 16.662-43.678 16.662-60.339 0l-286.17-286.17 60.34-60.339z" />
<glyph unicode="&#xea17;" d="M554.667 490.667h298.667c-42.667 42.672-256 256.005-298.667 298.667v-298.667zM469.333 405.333h-298.667c213.274-213.274 107.875-107.878 298.667-298.667v298.667z" />
<glyph unicode="&#xea18;" glyph-name="previous" d="M512 960c-282.77 0-512-229.23-512-512s229.23-512 512-512 512 229.23 512 512-229.23 512-512 512zM512 32c-229.75 0-416 186.25-416 416s186.25 416 416 416 416-186.25 416-416-186.25-416-416-416zM448 448l256 192v-384zM320 640h128v-384h-128v384z" />
<glyph unicode="&#xea19;" glyph-name="next" d="M512 960c282.77 0 512-229.23 512-512s-229.23-512-512-512-512 229.23-512 512 229.23 512 512 512zM512 32c229.75 0 416 186.25 416 416s-186.25 416-416 416-416-186.25-416-416 186.25-416 416-416zM576 448l-256 192v-384zM704 640h-128v-384h128v384z" />
<glyph unicode="&#xea1a;" glyph-name="backward" d="M512-64c282.77 0 512 229.23 512 512s-229.23 512-512 512-512-229.23-512-512 229.23-512 512-512zM512 864c229.75 0 416-186.25 416-416s-186.25-416-416-416-416 186.25-416 416 186.25 416 416 416zM704 288l-224 160 224 160zM448 288l-224 160 224 160z" />
<glyph unicode="&#xea1b;" d="M734.17 609.83l149.333 149.333c16.661 16.663 16.661 43.677 0 60.34s-43.678 16.662-60.339 0l-149.333-149.333 60.339-60.34zM289.83 286.17l-149.333-149.333c-16.662-16.661-16.662-43.678 0-60.339s43.677-16.661 60.34 0l149.333 149.333-60.34 60.339z" />
<glyph unicode="&#xea1c;" d="M883.503 819.503c16.661-16.663 16.661-43.677 0-60.34l-183.164-183.163h-60.339v60.34l183.164 183.164c16.661 16.662 43.678 16.662 60.339 0zM140.497 76.497c-16.662 16.661-16.662 43.678 0 60.339l183.164 183.164h60.34v-60.339l-183.163-183.164c-16.663-16.661-43.677-16.661-60.34 0z" />
<glyph unicode="&#xea1d;" d="M640 576v256h-85.333v-298.667c0-23.565 19.102-42.667 42.667-42.667h298.667v85.333h-256zM384 320v-256h85.333v298.667c0 23.565-19.102 42.667-42.667 42.667h-298.667v-85.333h256z" />
<glyph unicode="&#xea1e;" d="M716.501 712.833l-149.333-149.333c-16.666-16.662-16.666-43.679 0-60.34 16.661-16.661 43.678-16.661 60.339 0l149.333 149.334-60.339 60.34zM307.506 183.159l149.334 149.333c16.661 16.661 16.661 43.678 0 60.339s-43.678 16.661-60.34 0l-149.333-149.333 60.34-60.339z" />
<glyph unicode="&#xea1f;" d="M896 832h-298.667c213.274-213.274 107.874-107.875 298.667-298.667v298.667zM128 64h298.667c-190.791 190.793-85.393 85.393-298.667 298.667v-298.667z" />
<glyph unicode="&#xea20;" d="M810.667 686.327v60.34h-60.339l-183.164-183.163c-16.661-16.663-16.661-43.678 0-60.34s43.678-16.661 60.339 0l183.164 183.163zM273.673 149.333h-60.34v60.339l183.163 183.164c16.663 16.661 43.678 16.661 60.34 0s16.661-43.678 0-60.339l-183.163-183.164z" />
<glyph unicode="&#xea21;" d="M810.667 746.667v-256h85.333v298.667c0 23.564-19.102 42.667-42.667 42.667h-298.667v-85.333h256zM213.333 149.333v256h-85.333v-298.667c0-23.565 19.103-42.667 42.667-42.667h298.667v85.333h-256z" />
<glyph unicode="&#xea22;" d="M170.667 448c0 23.565 19.103 42.667 42.667 42.667h597.333c23.565 0 42.667-19.102 42.667-42.667s-19.102-42.667-42.667-42.667h-597.333c-23.564 0-42.667 19.102-42.667 42.667z" />
<glyph unicode="&#xea23;" d="M554.667 832c0 23.564-19.102 42.667-42.667 42.667s-42.667-19.103-42.667-42.667v-128h-128l170.667-170.667 170.667 170.667h-128v128zM682.667 192l-170.667 170.667-170.667-170.667h128v-128c0-23.565 19.102-42.667 42.667-42.667s42.667 19.102 42.667 42.667v128h128z" />
<glyph unicode="&#xea24;" d="M170.667 448c0 23.565 19.103 42.667 42.667 42.667h597.333c23.565 0 42.667-19.102 42.667-42.667s-19.102-42.667-42.667-42.667h-597.333c-23.564 0-42.667 19.102-42.667 42.667z" />
<glyph unicode="&#xea25;" d="M554.675 832c0 23.564-19.102 42.667-42.667 42.667-23.561 0-42.667-19.103-42.667-42.667v-152.999l-85.335 85.337-60.34-60.34 158.168-158.17c16.666-16.664 43.678-16.664 60.343 0l158.17 158.17-60.339 60.34-85.333-85.329v152.991zM640.017 131.661l-85.338 85.338v-152.998c0-23.565-19.102-42.667-42.667-42.667s-42.667 19.102-42.667 42.667v152.99l-85.329-85.329-60.34 60.339 158.17 158.17c16.661 16.661 43.678 16.661 60.339 0l158.17-158.17-60.339-60.339z" />
<glyph unicode="&#xea26;" d="M170.667 448c0 23.565 19.103 42.667 42.667 42.667h597.333c23.565 0 42.667-19.102 42.667-42.667s-19.102-42.667-42.667-42.667h-597.333c-23.564 0-42.667 19.102-42.667 42.667z" />
<glyph unicode="&#xea27;" d="M469.333 575.999c0-23.564 19.102-42.666 42.667-42.666s42.667 19.102 42.667 42.666v128h128l-170.667 170.668-170.667-170.668h128v-128zM341.333 192l170.667-170.667 170.667 170.667h-128v128c0 23.565-19.102 42.667-42.667 42.667s-42.667-19.102-42.667-42.667v-128h-128z" />
<glyph unicode="&#xea28;" d="M170.667 448c0 23.565 19.103 42.667 42.667 42.667h597.333c23.565 0 42.667-19.102 42.667-42.667s-19.102-42.667-42.667-42.667h-597.333c-23.564 0-42.667 19.102-42.667 42.667z" />
<glyph unicode="&#xea29;" d="M469.325 575.999c0-23.564 19.102-42.665 42.667-42.665s42.667 19.101 42.667 42.665v152.999l85.338-85.337 60.339 60.34-158.17 158.17c-16.661 16.662-43.678 16.662-60.339 0l-158.17-158.17 60.34-60.34 85.329 85.329v-152.991zM384.006 252.339l85.335-85.338v152.998c0 23.565 19.106 42.667 42.667 42.667 23.565 0 42.667-19.102 42.667-42.667v-152.99l85.333 85.329 60.339-60.339-158.17-158.17c-16.666-16.666-43.678-16.666-60.343 0l-158.168 158.17 60.34 60.339z" />
<glyph unicode="&#xea2a;" d="M456.841 563.501l-128.001 127.999-60.339-60.34 127.999-128c16.663-16.661 43.676-16.661 60.342 0 16.661 16.661 16.661 43.679 0 60.341zM567.164 563.501l128 127.999 60.339-60.34-127.996-128c-16.666-16.661-43.678-16.661-60.343 0-16.661 16.661-16.661 43.679 0 60.341zM695.164 204.493l-128 128c-16.661 16.661-16.661 43.678 0 60.339 16.666 16.661 43.678 16.661 60.343 0l127.996-128-60.339-60.339zM456.841 332.493l-128.001-128-60.339 60.339 127.999 128c16.663 16.661 43.676 16.661 60.342 0 16.661-16.661 16.661-43.678 0-60.339z" />
<glyph unicode="&#xea2b;" glyph-name="volume-increase" d="M1024 384h-192v-192h-128v192h-192v128h192v192h128v-192h192v-128zM416.006 0c-8.328 0-16.512 3.25-22.634 9.374l-246.626 246.626h-114.746c-17.672 0-32 14.326-32 32v320c0 17.672 14.328 32 32 32h114.746l246.626 246.628c9.154 9.154 22.916 11.89 34.874 6.936 11.958-4.952 19.754-16.622 19.754-29.564v-832c0-12.944-7.796-24.612-19.754-29.564-3.958-1.64-8.118-2.436-12.24-2.436z" />
<glyph unicode="&#xea2c;" glyph-name="volume-decrease" d="M512 512h512v-128h-512v128zM416.006 0c-8.328 0-16.512 3.25-22.634 9.374l-246.626 246.626h-114.746c-17.672 0-32 14.326-32 32v320c0 17.672 14.328 32 32 32h114.746l246.626 246.628c9.154 9.154 22.916 11.89 34.874 6.936 11.958-4.952 19.754-16.622 19.754-29.564v-832c0-12.944-7.796-24.612-19.754-29.564-3.958-1.64-8.118-2.436-12.24-2.436z" />
<glyph unicode="&#xea2d;" glyph-name="loop" d="M128 640h640v-192l256 256-256 256v-192h-768v-384h128zM896 256h-640v192l-256-256 256-256v192h768v384h-128z" />
<glyph unicode="&#xea2e;" d="M426.663 789.333h-255.997v-256l255.997 256zM597.329 789.333h255.996v-256l-255.996 256zM853.325 106.667h-255.996l255.996 256v-256zM426.663 106.667h-255.997v256l255.997-256z" />
<glyph unicode="&#xea2f;" d="M256 643.66l140.497-140.497c16.663-16.661 43.678-16.661 60.34 0s16.661 43.677 0 60.34l-140.497 140.497h-60.34v-60.34zM707.661 704h60.335v-60.342l-140.493-140.494c-16.661-16.661-43.678-16.661-60.339 0s-16.661 43.677 0 60.34l140.497 140.497zM707.661 192l-140.497 140.497c-16.661 16.661-16.661 43.678 0 60.339s43.678 16.661 60.339 0l140.493-140.493v-60.343h-60.335zM256 252.339l140.497 140.497c16.663 16.661 43.678 16.661 60.34 0s16.661-43.678 0-60.339l-140.497-140.497h-60.34v60.339z" />
<glyph unicode="&#xea30;" d="M213.333 789.333h213.332v-85.333h-170.665v-170.667h-85.333v213.333c0 23.564 19.103 42.667 42.667 42.667zM810.662 789.333h-213.329v-85.333h170.662v-170.667h85.333v213.333c0 23.564-19.102 42.667-42.667 42.667zM597.333 106.667h213.329c23.565 0 42.667 19.102 42.667 42.667v213.333h-85.333v-170.667h-170.662v-85.333zM213.333 106.667h213.332v85.333h-170.665v170.667h-85.333v-213.333c0-23.565 19.103-42.667 42.667-42.667z" />
<glyph unicode="&#xea31;" d="M469.333 704h85.333v-128c0-23.564-19.102-42.667-42.667-42.667s-42.667 19.102-42.667 42.667v128zM256 490.667v-85.333h128c23.564 0 42.667 19.102 42.667 42.667s-19.102 42.667-42.667 42.667h-128zM640 490.667h128v-85.333h-128c-23.565 0-42.667 19.102-42.667 42.667s19.102 42.667 42.667 42.667zM554.667 320v-128h-85.333v128c0 23.565 19.102 42.667 42.667 42.667s42.667-19.102 42.667-42.667z" />
<glyph unicode="&#xea32;" d="M341.333 704l170.667 170.667 170.667-170.667h-341.333zM85.333 448l170.667-170.667v341.333l-170.667-170.667zM938.667 448l-170.667-170.667v341.333l170.667-170.667zM512 21.333l-170.667 170.667h341.333l-170.667-170.667z" />
<glyph unicode="&#xea33;" d="M469.338 728.982l42.675 42.674 42.658-42.659v-153.001c0-23.564-19.102-42.667-42.667-42.667s-42.667 19.103-42.667 42.667v152.986zM469.338 167.010l42.675-42.675 42.658 42.658v153.003c0 23.565-19.102 42.667-42.667 42.667s-42.667-19.102-42.667-42.667v-152.986zM792.998 490.662l42.667-42.662-42.671-42.671h-152.99c-23.565 0-42.667 19.102-42.667 42.667s19.102 42.667 42.667 42.667h152.994zM231.013 405.329l-42.669 42.671 42.665 42.662h152.995c23.564 0 42.667-19.102 42.667-42.667s-19.103-42.667-42.667-42.667h-152.991z" />
<glyph unicode="&#xea34;" d="M542.178 862.17c-8 8.002-18.854 12.497-30.17 12.497s-22.17-4.495-30.17-12.497l-158.172-158.17 60.339-60.34 128.003 128 127.996-128 60.343 60.339-158.17 158.17zM542.178 33.83c-8-8-18.854-12.497-30.17-12.497s-22.17 4.497-30.17 12.497l-158.172 158.17 60.339 60.339 128.003-128 127.996 128 60.343-60.339-158.17-158.17zM938.667 448.004c0 11.315-4.497 22.17-12.497 30.17l-158.17 158.167-60.339-60.34 128-127.997-128-128.004 60.339-60.339 158.17 158.174c8 8 12.497 18.854 12.497 30.17zM97.83 478.174c-8.002-8-12.497-18.854-12.497-30.17s4.495-22.17 12.497-30.17l158.17-158.174 60.34 60.339-128 128.004 128 127.997-60.339 60.34-158.17-158.167z" />
</font>
</defs>
</svg>
