<svg width="56" height="56" viewBox="0 0 56 56" fill="none" xmlns="http://www.w3.org/2000/svg">
<rect width="48" height="48" rx="8" fill="#008A60"/>
<rect x="0.5" y="0.5" width="47" height="47" rx="7.5" stroke="#919EAB" stroke-opacity="0.16"/>
<path d="M12.6454 29.2685C12.7599 29.2341 12.9775 29.1922 13.1225 29.1731C13.2714 29.1578 14.8975 29.1387 20.089 29.1311L20.0776 31.0849C20.0661 32.951 20.0585 33.0578 19.9821 33.3555C19.9363 33.531 19.8447 33.7867 19.7798 33.9279C19.7149 34.0729 19.589 34.298 19.4973 34.4354C19.4095 34.5728 19.1881 34.8208 19.0126 34.9887C18.8331 35.1567 18.5545 35.3742 18.3865 35.4772C18.2224 35.5764 17.9132 35.7176 17.7032 35.7901C17.4933 35.8626 17.2108 35.9389 17.0734 35.958C16.9283 35.9847 16.0847 36 15.0311 36C13.9776 36 13.134 35.9847 12.9889 35.958C12.8515 35.9389 12.569 35.8626 12.3591 35.7901C12.1491 35.7176 11.8399 35.5764 11.6758 35.4772C11.5078 35.3742 11.2292 35.1567 11.0497 34.9887C10.8742 34.8208 10.6528 34.5728 10.565 34.4354C10.4733 34.298 10.3474 34.0729 10.2825 33.9279C10.2176 33.7867 10.126 33.5234 10.0802 33.3364C10.0191 33.0845 10 32.8937 10 32.5465C10.0038 32.2107 10.0267 32.0084 10.084 31.7833C10.126 31.6154 10.2405 31.3253 10.3359 31.1345C10.4275 30.9437 10.5955 30.6728 10.7062 30.5278C10.8169 30.379 11.0307 30.1614 11.1757 30.0393C11.3208 29.9134 11.5536 29.7493 11.691 29.6692C11.8285 29.589 12.0499 29.4784 12.1873 29.4249C12.3247 29.3715 12.5308 29.3028 12.6454 29.2685Z" fill="white"/>
<path d="M30.0024 12.1993C30.1055 12.142 30.262 12.0733 30.3574 12.0466C30.4834 12.0123 31.3499 12.0008 33.667 12.0008C36.4879 11.997 36.82 12.0047 36.9307 12.0581C36.9995 12.0924 37.0987 12.1573 37.1445 12.2031C37.1941 12.2451 37.259 12.329 37.2896 12.3863C37.3201 12.4473 37.343 12.5961 37.343 12.7221C37.343 12.9052 37.3239 12.9701 37.2552 13.0541C37.2056 13.1151 36.6864 13.7867 36.1024 14.5538C35.5145 15.3208 34.6862 16.4007 34.2548 16.9579C33.8235 17.515 33.102 18.4576 32.6516 19.0567C32.2012 19.6558 31.5026 20.5564 31.098 21.0601C30.6972 21.5639 30.2467 22.0905 30.1055 22.2279C29.9604 22.3652 29.7314 22.5599 29.594 22.6591C29.4566 22.7583 29.2275 22.9071 29.0786 22.9873C28.9298 23.0674 28.6931 23.1819 28.5442 23.2353C28.3954 23.2925 28.1396 23.3689 27.6663 23.4719L27.838 23.5024C27.9335 23.5177 28.1205 23.5711 28.2579 23.6169C28.3954 23.6627 28.6702 23.7848 28.8687 23.8878C29.0672 23.9909 29.3955 24.1969 29.594 24.3458C29.7925 24.4984 30.1475 24.8151 30.3765 25.0556C30.7201 25.4066 31.4606 26.3645 34.3465 30.192C36.3009 32.7793 37.9194 34.9277 37.9461 34.962C37.969 34.9964 37.9958 35.1223 37.9996 35.2368C38.0034 35.4009 37.9805 35.4848 37.9042 35.626C37.8278 35.7634 37.7553 35.8321 37.4384 35.9809H34.251C31.2698 35.9809 31.0484 35.9771 30.8346 35.9122C30.7086 35.8741 30.5292 35.7901 30.4338 35.7329C30.3383 35.6718 30.2086 35.565 30.1437 35.4963C30.0788 35.4276 29.3459 34.4927 28.5213 33.4242C27.6968 32.3557 26.8303 31.2376 26.5974 30.9437C26.3646 30.6499 25.8721 30.0241 25.5057 29.5509C25.1392 29.0777 23.9673 27.5474 22.9023 26.1431C21.8373 24.7426 20.9746 23.5749 20.9822 23.5482C20.9899 23.5253 22.9176 21.064 25.2614 18.0836C27.6014 15.1033 29.5902 12.5847 29.6703 12.4817C29.7543 12.3824 29.9032 12.2565 30.0024 12.1993Z" fill="white"/>
<path d="M12.9316 20.7396C13.0576 20.7167 13.2141 20.6938 13.2752 20.6862C13.3363 20.6785 14.8861 20.6671 20.0356 20.6595L20.0317 24.7236L19.9058 25.0861C19.8371 25.2845 19.7073 25.5745 19.6195 25.731C19.5317 25.8875 19.3217 26.1622 19.1538 26.3378C18.9858 26.5171 18.7453 26.7346 18.6194 26.8224C18.4934 26.914 18.272 27.0437 18.1231 27.1162C17.9742 27.1925 17.7452 27.2879 17.6078 27.3299C17.4704 27.3719 17.2566 27.433 17.1306 27.4597C16.9588 27.4978 16.4359 27.5093 15.0311 27.5093C13.6264 27.5093 13.1034 27.4978 12.9316 27.4597C12.8057 27.433 12.5919 27.3719 12.4545 27.3299C12.3171 27.2879 12.0842 27.1925 11.9391 27.1162C11.7903 27.0437 11.5689 26.914 11.4429 26.8224C11.3169 26.7346 11.0764 26.5171 10.9085 26.3378C10.7405 26.1622 10.5306 25.8875 10.4428 25.731C10.355 25.5745 10.2252 25.2845 10.1565 25.0861C10.0343 24.735 10.0305 24.7083 10.0305 24.0939C10.0305 23.4795 10.0343 23.4528 10.1565 23.1017C10.2252 22.9033 10.355 22.6133 10.4428 22.4568C10.5306 22.3004 10.7405 22.0256 10.9085 21.8501C11.0764 21.6707 11.3169 21.4532 11.4429 21.3654C11.5689 21.2738 11.7903 21.1441 11.9391 21.0716C12.0842 20.9953 12.3171 20.8999 12.4545 20.8579C12.5919 20.8121 12.8057 20.7587 12.9316 20.7396Z" fill="white"/>
<path d="M12.3591 12.3977C12.569 12.3252 12.8362 12.2489 12.9507 12.2298C13.0653 12.2107 14.7181 12.1954 20.089 12.1878L20.0776 14.1454C20.0661 16.0229 20.0623 16.1107 19.9821 16.4045C19.9363 16.5725 19.8409 16.8281 19.7722 16.977C19.7035 17.1258 19.5699 17.3547 19.4783 17.4921C19.3866 17.6295 19.2034 17.847 19.0698 17.9806C18.9362 18.1103 18.6881 18.3088 18.5125 18.4232C18.3407 18.5377 18.0964 18.6713 17.9704 18.7247C17.8445 18.7781 17.6231 18.8545 17.4742 18.9002C17.3253 18.9422 17.0619 18.9956 16.8825 19.0185C16.7031 19.0376 15.8709 19.0567 15.0311 19.0567C14.1914 19.0567 13.3592 19.0376 13.1798 19.0185C13.0004 18.9956 12.7599 18.9499 12.6454 18.9193C12.5308 18.885 12.3247 18.8163 12.1873 18.7629C12.0499 18.7094 11.8285 18.5988 11.691 18.5186C11.5536 18.4385 11.3208 18.2744 11.1757 18.1485C11.0307 18.0264 10.8169 17.8089 10.7062 17.66C10.5955 17.515 10.4275 17.2403 10.3359 17.0533C10.2405 16.8663 10.126 16.5725 10.084 16.4045C10.0267 16.1794 10.0038 15.9771 10 15.6413C10 15.2941 10.0191 15.1033 10.0802 14.8514C10.126 14.6644 10.2176 14.4011 10.2825 14.2599C10.3474 14.1149 10.4733 13.8898 10.565 13.7524C10.6528 13.615 10.8742 13.367 11.0497 13.1991C11.2292 13.0312 11.5078 12.8136 11.6758 12.7106C11.8399 12.6114 12.1491 12.4702 12.3591 12.3977Z" fill="white"/>
<rect x="33" y="33" width="22" height="22" rx="11" fill="#2F363F"/>
<rect x="33" y="33" width="22" height="22" rx="11" stroke="#161C24" stroke-width="2"/>
<mask id="mask0_426_5092" style="mask-type:alpha" maskUnits="userSpaceOnUse" x="36" y="36" width="16" height="16">
<rect x="36" y="36" width="16" height="16" fill="#D9D9D9"/>
</mask>
<g mask="url(#mask0_426_5092)">
<path d="M44.0001 47.9L45.4319 46.4682C45.5552 46.345 45.6973 46.2834 45.8584 46.2834C46.0196 46.2834 46.1612 46.3445 46.2834 46.4667C46.4057 46.5889 46.4668 46.7306 46.4668 46.8917C46.4668 47.0528 46.4062 47.1941 46.2851 47.3155L44.4238 49.183C44.3633 49.2438 44.2978 49.2868 44.2271 49.312C44.1564 49.3374 44.0808 49.35 44.0001 49.35C43.9194 49.35 43.8438 49.3374 43.7731 49.312C43.7024 49.2868 43.6369 49.2438 43.5764 49.183L41.7151 47.3155C41.594 47.1941 41.5362 47.0528 41.5418 46.8917C41.5473 46.7306 41.6112 46.5889 41.7334 46.4667C41.8557 46.3445 41.9973 46.2834 42.1584 46.2834C42.3196 46.2834 42.4611 46.345 42.5829 46.4682L44.0001 47.9ZM44.0001 40.1L42.5683 41.5319C42.4451 41.6551 42.3029 41.7167 42.1418 41.7167C41.9807 41.7167 41.839 41.6556 41.7168 41.5334C41.5946 41.4111 41.5334 41.2695 41.5334 41.1084C41.5334 40.9472 41.594 40.806 41.7151 40.6845L43.5764 38.817C43.6369 38.7562 43.7024 38.7132 43.7731 38.688C43.8438 38.6627 43.9194 38.65 44.0001 38.65C44.0808 38.65 44.1564 38.6627 44.2271 38.688C44.2978 38.7132 44.3633 38.7562 44.4238 38.817L46.2851 40.6845C46.4062 40.806 46.4668 40.9445 46.4668 41.1C46.4668 41.2556 46.4057 41.3945 46.2834 41.5167C46.1612 41.6389 46.0196 41.7 45.8584 41.7C45.6973 41.7 45.5552 41.6391 45.4319 41.5172L44.0001 40.1Z" fill="#637381"/>
</g>
</svg>
